<svg width="326" height="261" viewBox="0 0 326 261" fill="none" xmlns="http://www.w3.org/2000/svg">
<path d="M283.681 175.93V164.827C283.681 163.368 283.428 162.319 282.942 161.687C282.454 161.052 281.714 160.732 280.704 160.732C279.848 160.732 279.134 160.95 278.562 161.38C277.989 161.812 277.537 162.23 277.201 162.639V175.93H274.308V150.534L277.201 150.208V160.448H277.27C277.369 160.308 277.52 160.109 277.725 159.873C277.924 159.633 278.211 159.394 278.562 159.154C278.925 158.915 279.355 158.703 279.867 158.525C280.379 158.345 280.985 158.255 281.675 158.255C283.178 158.255 284.371 158.746 285.248 159.732C286.133 160.709 286.573 162.341 286.573 164.613V175.93H283.681ZM270.048 162.028C269.973 161.955 269.86 161.847 269.706 161.704C269.545 161.561 269.353 161.415 269.117 161.274C268.884 161.131 268.593 161.004 268.254 160.899C267.925 160.786 267.54 160.732 267.112 160.732C266.489 160.732 265.915 160.85 265.376 161.075C264.84 161.302 264.376 161.669 263.986 162.172C263.587 162.676 263.282 163.326 263.046 164.129C262.825 164.93 262.717 165.907 262.717 167.058C262.717 168.327 262.815 169.392 263.012 170.256C263.219 171.115 263.5 171.803 263.864 172.32C264.21 172.836 264.652 173.205 265.164 173.435C265.672 173.663 266.244 173.775 266.859 173.775C267.747 173.775 268.417 173.618 268.889 173.305C269.348 172.995 269.677 172.745 269.865 172.552L271.048 174.565C270.925 174.712 270.752 174.884 270.531 175.086C270.298 175.29 270.007 175.492 269.653 175.68C269.297 175.869 268.855 176.037 268.348 176.166C267.836 176.298 267.244 176.361 266.578 176.361C265.619 176.361 264.727 176.206 263.897 175.893C263.051 175.583 262.332 175.069 261.707 174.351C261.089 173.632 260.603 172.698 260.243 171.547C259.882 170.399 259.706 168.974 259.706 167.274C259.706 165.621 259.918 164.218 260.346 163.071C260.784 161.92 261.341 160.992 262.036 160.289C262.726 159.579 263.498 159.067 264.337 158.738C265.188 158.417 266.037 158.255 266.893 158.255C267.54 158.255 268.107 158.316 268.598 158.434C269.086 158.556 269.499 158.703 269.85 158.887C270.194 159.067 270.485 159.256 270.706 159.461C270.93 159.666 271.118 159.835 271.264 159.978L270.048 162.028ZM258.059 161.236C257.99 161.19 257.833 161.131 257.593 161.056C257.36 160.986 257.035 160.95 256.631 160.95C255.72 160.95 255.015 161.197 254.498 161.687C253.991 162.176 253.626 162.709 253.409 163.284V175.93H250.512V158.685H253.162V161.023H253.231C253.349 160.685 253.508 160.359 253.695 160.034C253.888 159.71 254.123 159.422 254.409 159.17C254.7 158.919 255.039 158.722 255.429 158.578C255.823 158.434 256.297 158.363 256.843 158.363C257.247 158.363 257.576 158.4 257.829 158.473C258.083 158.544 258.276 158.602 258.415 158.649L258.059 161.236ZM240.43 173.878C240.829 173.878 241.19 173.823 241.505 173.703C241.806 173.585 242.073 173.44 242.303 173.273C242.529 173.104 242.722 172.918 242.871 172.714C243.027 172.512 243.167 172.336 243.284 172.195V168.387L242.356 168.422C240.974 168.471 239.923 168.711 239.214 169.14C238.49 169.572 238.134 170.267 238.134 171.225C238.134 172.109 238.336 172.775 238.74 173.219C239.149 173.663 239.711 173.878 240.43 173.878ZM235.237 171.547C235.237 170.542 235.429 169.704 235.809 169.035C236.194 168.363 236.706 167.821 237.35 167.401C237.987 166.978 238.75 166.68 239.618 166.501C240.49 166.321 241.411 166.231 242.392 166.231H243.284V164.578C243.284 163.118 243.027 162.111 242.515 161.561C242.003 161.009 241.284 160.732 240.358 160.732C239.49 160.732 238.776 160.92 238.204 161.291C237.636 161.664 237.18 161.991 236.843 162.279L235.626 160.34C235.823 160.148 236.062 159.931 236.362 159.694C236.663 159.452 237.031 159.225 237.451 159.008C237.884 158.797 238.367 158.614 238.923 158.473C239.466 158.328 240.091 158.255 240.781 158.255C242.549 158.255 243.885 158.746 244.792 159.732C245.694 160.709 246.15 162.291 246.15 164.472V172.336C246.15 173.081 246.172 173.803 246.22 174.51C246.271 175.217 246.319 175.691 246.362 175.93H243.609L243.501 174.029H243.431C243.332 174.243 243.191 174.487 242.998 174.764C242.806 175.038 242.57 175.29 242.284 175.52C241.998 175.747 241.657 175.94 241.248 176.112C240.844 176.278 240.368 176.361 239.815 176.361C239.17 176.361 238.569 176.243 238.007 176.001C237.449 175.761 236.958 175.426 236.547 174.996C236.129 174.565 235.804 174.057 235.573 173.47C235.352 172.883 235.237 172.242 235.237 171.547V171.547ZM226.937 160.629C225.91 160.629 225.088 161.056 224.463 161.92C223.847 162.78 223.491 164.026 223.398 165.655H229.656C229.68 165.533 229.7 165.364 229.709 165.134C229.724 164.907 229.728 164.66 229.728 164.4C229.728 163.199 229.488 162.272 229.009 161.615C228.536 160.957 227.843 160.629 226.937 160.629ZM232.376 164.506C232.376 165.25 232.352 165.888 232.306 166.428C232.258 166.964 232.207 167.441 232.159 167.848H223.398C223.491 169.885 223.927 171.383 224.698 172.336C225.477 173.296 226.595 173.775 228.045 173.775C228.543 173.775 229 173.719 229.409 173.595C229.808 173.477 230.164 173.334 230.464 173.164C230.76 172.995 231.005 172.832 231.217 172.662C231.414 172.493 231.563 172.36 231.657 172.266L232.734 174.315C232.611 174.433 232.433 174.606 232.193 174.834C231.962 175.062 231.635 175.29 231.236 175.52C230.827 175.747 230.325 175.94 229.728 176.112C229.127 176.278 228.432 176.361 227.62 176.361C226.543 176.361 225.571 176.182 224.698 175.822C223.828 175.468 223.092 174.907 222.477 174.154C221.876 173.399 221.397 172.439 221.073 171.28C220.738 170.119 220.565 168.723 220.565 167.095C220.565 165.558 220.743 164.235 221.087 163.122C221.424 162.009 221.904 161.094 222.496 160.375C223.097 159.659 223.787 159.123 224.576 158.776C225.364 158.428 226.211 158.255 227.112 158.255C228.759 158.255 230.051 158.776 230.976 159.816C231.912 160.863 232.376 162.423 232.376 164.506V164.506ZM216.24 162.172C216.043 161.955 215.706 161.664 215.199 161.291C214.701 160.92 214.042 160.732 213.229 160.732C212.47 160.732 211.888 160.915 211.484 161.274C211.075 161.631 210.868 162.063 210.868 162.565C210.868 163.212 211.056 163.745 211.426 164.165C211.794 164.586 212.366 165.034 213.126 165.51L214.203 166.156C215.367 166.856 216.288 167.601 216.954 168.404C217.62 169.208 217.949 170.242 217.949 171.51C217.949 172.878 217.485 174.029 216.545 174.961C215.603 175.893 214.249 176.361 212.484 176.361C211.789 176.361 211.183 176.29 210.662 176.148C210.13 176.001 209.676 175.838 209.281 175.645C208.887 175.451 208.558 175.24 208.296 175.016C208.036 174.787 207.815 174.578 207.651 174.386L209.046 172.087C209.192 172.233 209.361 172.394 209.568 172.59C209.769 172.784 210.012 172.967 210.303 173.149C210.587 173.324 210.904 173.477 211.267 173.595C211.618 173.719 212.037 173.775 212.515 173.775C213.376 173.775 214.028 173.585 214.484 173.2C214.939 172.817 215.165 172.35 215.165 171.796C215.165 171.392 215.112 171.04 215.006 170.741C214.898 170.441 214.732 170.171 214.525 169.935C214.307 169.692 214.042 169.462 213.737 169.251C213.422 169.035 213.071 168.793 212.662 168.532L211.587 167.848C210.515 167.153 209.676 166.424 209.065 165.655C208.459 164.888 208.154 163.908 208.154 162.709C208.154 162.063 208.276 161.469 208.529 160.934C208.784 160.394 209.135 159.924 209.587 159.532C210.036 159.135 210.568 158.826 211.178 158.595C211.784 158.37 212.436 158.255 213.126 158.255C213.799 158.255 214.362 158.32 214.84 158.455C215.319 158.586 215.732 158.75 216.076 158.957C216.418 159.161 216.706 159.366 216.939 159.568C217.161 159.769 217.353 159.943 217.49 160.087L216.24 162.172ZM199.532 160.629C198.507 160.629 197.68 161.056 197.062 161.92C196.442 162.78 196.088 164.026 195.99 165.655H202.251C202.275 165.533 202.292 165.364 202.301 165.134C202.316 164.907 202.321 164.66 202.321 164.4C202.321 163.199 202.087 162.272 201.607 161.615C201.128 160.957 200.443 160.629 199.532 160.629ZM204.97 164.506C204.97 165.25 204.946 165.888 204.898 166.428C204.848 166.964 204.804 167.441 204.759 167.848H195.99C196.088 169.885 196.521 171.383 197.291 172.336C198.072 173.296 199.188 173.775 200.64 173.775C201.138 173.775 201.592 173.719 202.001 173.595C202.405 173.477 202.758 173.334 203.059 173.164C203.355 172.995 203.602 172.832 203.809 172.662C204.011 172.493 204.158 172.36 204.251 172.266L205.331 174.315C205.208 174.433 205.026 174.606 204.792 174.834C204.557 175.062 204.227 175.29 203.828 175.52C203.419 175.747 202.917 175.94 202.321 176.112C201.724 176.278 201.02 176.361 200.212 176.361C199.137 176.361 198.171 176.182 197.291 175.822C196.427 175.468 195.685 174.907 195.079 174.154C194.47 173.399 193.994 172.439 193.662 171.28C193.333 170.119 193.165 168.723 193.165 167.095C193.165 165.558 193.343 164.235 193.684 163.122C194.023 162.009 194.497 161.094 195.093 160.375C195.689 159.659 196.379 159.123 197.17 158.776C197.954 158.428 198.803 158.255 199.709 158.255C201.359 158.255 202.645 158.776 203.576 159.816C204.504 160.863 204.97 162.423 204.97 164.506V164.506ZM186.472 158.255C186.472 156.676 186.036 155.51 185.167 154.754C184.295 154 182.931 153.622 181.069 153.622H179.565V163.354H180.924C182.81 163.354 184.208 162.911 185.112 162.028C186.021 161.142 186.472 159.882 186.472 158.255V158.255ZM187.727 175.93L182.607 165.763C182.347 165.788 182.07 165.806 181.786 165.815C181.497 165.829 181.213 165.834 180.924 165.834H179.565V175.93H176.455V151.143H181.069C184.052 151.143 186.251 151.723 187.67 152.887C189.092 154.048 189.801 155.781 189.801 158.076C189.801 159.732 189.46 161.142 188.762 162.315C188.07 163.486 187.008 164.386 185.576 165.01L191.373 175.93H187.727ZM157.71 173.775C158.161 173.775 158.566 173.719 158.924 173.595C159.282 173.477 159.592 173.324 159.855 173.149C160.118 172.967 160.336 172.784 160.516 172.59C160.696 172.394 160.832 172.233 160.927 172.087V161.453C160.664 161.283 160.36 161.142 160.016 161.023C159.671 160.906 159.234 160.845 158.709 160.845C158.042 160.845 157.417 160.958 156.832 161.185C156.248 161.411 155.739 161.789 155.311 162.315C154.882 162.841 154.542 163.526 154.292 164.362C154.042 165.2 153.915 166.231 153.915 167.454C153.915 168.653 154.017 169.65 154.22 170.45C154.422 171.256 154.704 171.901 155.061 172.388C155.418 172.883 155.824 173.235 156.277 173.454C156.732 173.667 157.207 173.775 157.71 173.775V173.775ZM150.91 167.562C150.91 165.811 151.138 164.35 151.59 163.176C152.043 162.002 152.627 161.056 153.343 160.34C154.06 159.621 154.87 159.112 155.778 158.814C156.683 158.514 157.588 158.363 158.496 158.363C159.043 158.363 159.52 158.406 159.926 158.492C160.331 158.572 160.664 158.675 160.927 158.797V150.534L163.825 150.208V175.93H161.179V174.099H161.106C161.034 174.243 160.904 174.44 160.714 174.694C160.521 174.945 160.259 175.194 159.926 175.445C159.592 175.699 159.175 175.912 158.673 176.096C158.174 176.273 157.588 176.361 156.92 176.361C156.11 176.361 155.34 176.198 154.615 175.877C153.886 175.553 153.251 175.038 152.7 174.332C152.15 173.623 151.717 172.714 151.393 171.601C151.073 170.488 150.91 169.14 150.91 167.562V167.562ZM144.471 175.93V164.827C144.471 163.368 144.227 162.319 143.739 161.687C143.249 161.052 142.504 160.732 141.503 160.732C140.644 160.732 139.928 160.95 139.356 161.38C138.78 161.812 138.329 162.23 137.995 162.639V175.93H135.098V158.685H137.746V160.629H137.816C137.887 160.48 138.042 160.274 138.281 159.998C138.52 159.722 138.83 159.461 139.212 159.208C139.595 158.957 140.048 158.732 140.573 158.544C141.098 158.351 141.693 158.255 142.361 158.255C143.124 158.255 143.816 158.37 144.437 158.595C145.056 158.826 145.58 159.189 146.01 159.694C146.44 160.197 146.772 160.85 147.012 161.651C147.249 162.453 147.369 163.439 147.369 164.613V175.93H144.471ZM125.009 173.878C125.415 173.878 125.772 173.823 126.082 173.703C126.392 173.585 126.662 173.44 126.888 173.273C127.114 173.104 127.305 172.918 127.459 172.714C127.613 172.512 127.752 172.336 127.87 172.195V168.387L126.941 168.422C125.558 168.471 124.508 168.711 123.793 169.14C123.077 169.572 122.72 170.267 122.72 171.225C122.72 172.109 122.922 172.775 123.329 173.219C123.732 173.663 124.294 173.878 125.009 173.878ZM119.822 171.547C119.822 170.542 120.013 169.704 120.395 169.035C120.776 168.363 121.288 167.821 121.934 167.401C122.577 166.978 123.334 166.68 124.206 166.501C125.073 166.321 126 166.231 126.977 166.231H127.87V164.578C127.87 163.118 127.613 162.111 127.101 161.561C126.589 161.009 125.867 160.732 124.938 160.732C124.08 160.732 123.363 160.92 122.789 161.291C122.217 161.664 121.766 161.991 121.431 162.279L120.216 160.34C120.408 160.148 120.652 159.931 120.948 159.694C121.246 159.452 121.61 159.225 122.04 159.008C122.47 158.797 122.958 158.614 123.507 158.473C124.056 158.328 124.674 158.255 125.367 158.255C127.132 158.255 128.467 158.746 129.374 159.732C130.28 160.709 130.732 162.291 130.732 164.472V172.336C130.732 173.081 130.758 173.803 130.806 174.51C130.852 175.217 130.902 175.691 130.947 175.93H128.191L128.086 174.029H128.014C127.919 174.243 127.777 174.487 127.585 174.764C127.394 175.038 127.156 175.29 126.869 175.52C126.584 175.747 126.236 175.94 125.833 176.112C125.428 176.278 124.95 176.361 124.4 176.361C123.757 176.361 123.154 176.243 122.593 176.001C122.034 175.761 121.546 175.426 121.127 174.996C120.712 174.565 120.387 174.057 120.161 173.47C119.935 172.883 119.822 172.242 119.822 171.547V171.547ZM275.631 139.705V128.605C275.631 127.145 275.383 126.097 274.9 125.461C274.412 124.828 273.664 124.511 272.659 124.511C271.8 124.511 271.082 124.726 270.512 125.156C269.935 125.587 269.485 126.006 269.146 126.414V139.705H266.254V122.463H268.908V124.402H268.978C269.047 124.258 269.199 124.048 269.437 123.773C269.677 123.498 269.983 123.235 270.367 122.984C270.747 122.732 271.204 122.511 271.733 122.318C272.255 122.127 272.851 122.031 273.517 122.031C274.284 122.031 274.974 122.147 275.595 122.373C276.215 122.6 276.734 122.966 277.167 123.469C277.6 123.97 277.927 124.624 278.172 125.426C278.408 126.23 278.528 127.216 278.528 128.39V139.705H275.631ZM259.593 131.085C259.593 128.785 259.266 127.115 258.598 126.072C257.932 125.032 257.001 124.511 255.809 124.511C254.621 124.511 253.691 125.032 253.034 126.072C252.38 127.115 252.048 128.785 252.048 131.085C252.048 133.383 252.385 135.036 253.049 136.041C253.719 137.047 254.655 137.549 255.842 137.549C257.035 137.549 257.961 137.047 258.617 136.041C259.271 135.036 259.593 133.383 259.593 131.085V131.085ZM249.048 131.085C249.048 129.504 249.23 128.138 249.605 126.99C249.969 125.839 250.471 124.9 251.099 124.171C251.733 123.438 252.462 122.9 253.282 122.553C254.109 122.205 254.987 122.031 255.912 122.031C256.867 122.031 257.754 122.205 258.567 122.553C259.375 122.9 260.079 123.438 260.675 124.171C261.272 124.9 261.74 125.839 262.089 126.99C262.431 128.138 262.599 129.504 262.599 131.085C262.599 132.687 262.426 134.065 262.07 135.215C261.707 136.364 261.219 137.304 260.586 138.036C259.952 138.765 259.218 139.298 258.379 139.633C257.547 139.968 256.67 140.137 255.734 140.137C254.785 140.137 253.897 139.968 253.089 139.633C252.274 139.298 251.577 138.765 250.976 138.036C250.385 137.304 249.906 136.371 249.565 135.233C249.221 134.095 249.048 132.711 249.048 131.085V131.085ZM243.965 118.294C243.364 118.294 242.89 118.103 242.534 117.72C242.171 117.336 241.998 116.834 241.998 116.21C241.998 115.612 242.171 115.121 242.534 114.738C242.89 114.355 243.364 114.165 243.965 114.165C244.535 114.165 245.008 114.355 245.362 114.738C245.718 115.121 245.896 115.612 245.896 116.21C245.896 116.834 245.718 117.336 245.362 117.72C245.008 118.103 244.535 118.294 243.965 118.294ZM245.398 139.705H242.501V122.463H245.398V139.705ZM239.214 124.833H235.451V134.388C235.451 135.612 235.602 136.441 235.917 136.886C236.227 137.328 236.749 137.549 237.49 137.549C237.918 137.549 238.288 137.49 238.598 137.37C238.908 137.252 239.134 137.141 239.279 137.047L239.673 139.383C239.553 139.479 239.269 139.627 238.815 139.831C238.358 140.035 237.757 140.137 236.987 140.137C235.513 140.137 234.405 139.723 233.662 138.898C232.921 138.071 232.554 136.699 232.554 134.783V124.833H230.483V122.893L232.554 122.463L232.873 117.647H235.451V122.463H239.565L239.214 124.833ZM221.782 137.657C222.186 137.657 222.542 137.598 222.857 137.478C223.167 137.359 223.438 137.213 223.66 137.047C223.886 136.88 224.078 136.694 224.237 136.49C224.388 136.288 224.52 136.113 224.645 135.969V132.161L223.713 132.198C222.33 132.246 221.279 132.485 220.565 132.916C219.846 133.345 219.495 134.041 219.495 134.998C219.495 135.885 219.697 136.551 220.106 136.993C220.505 137.437 221.073 137.657 221.782 137.657V137.657ZM216.598 135.324C216.598 134.317 216.786 133.48 217.165 132.809C217.55 132.138 218.062 131.593 218.702 131.174C219.349 130.755 220.111 130.456 220.979 130.274C221.852 130.097 222.777 130.006 223.749 130.006H224.645V128.354C224.645 126.894 224.388 125.887 223.876 125.338C223.364 124.786 222.64 124.511 221.712 124.511C220.856 124.511 220.137 124.695 219.57 125.067C218.993 125.438 218.541 125.766 218.204 126.055L216.992 124.114C217.18 123.924 217.427 123.708 217.723 123.469C218.019 123.23 218.387 123.001 218.815 122.787C219.245 122.571 219.733 122.391 220.279 122.248C220.832 122.104 221.448 122.031 222.138 122.031C223.91 122.031 225.242 122.522 226.153 123.505C227.055 124.488 227.512 126.067 227.512 128.245V136.113C227.512 136.853 227.533 137.58 227.581 138.288C227.634 138.994 227.68 139.467 227.728 139.705H224.97L224.862 137.8H224.787C224.694 138.018 224.552 138.261 224.359 138.537C224.172 138.813 223.931 139.064 223.64 139.292C223.354 139.52 223.013 139.717 222.609 139.885C222.2 140.054 221.722 140.137 221.176 140.137C220.527 140.137 219.93 140.017 219.368 139.778C218.81 139.538 218.317 139.202 217.899 138.77C217.485 138.341 217.161 137.833 216.939 137.245C216.706 136.659 216.598 136.017 216.598 135.324V135.324ZM213.338 125.803C213.268 125.732 213.155 125.624 213.006 125.479C212.845 125.338 212.652 125.193 212.412 125.05C212.169 124.906 211.888 124.78 211.549 124.672C211.219 124.563 210.835 124.511 210.407 124.511C209.789 124.511 209.209 124.624 208.671 124.85C208.134 125.079 207.67 125.445 207.281 125.948C206.887 126.45 206.576 127.102 206.346 127.904C206.12 128.707 206.002 129.683 206.002 130.831C206.002 132.102 206.11 133.167 206.307 134.029C206.514 134.892 206.795 135.58 207.149 136.096C207.505 136.609 207.942 136.981 208.459 137.207C208.966 137.437 209.539 137.549 210.154 137.549C211.032 137.549 211.712 137.395 212.174 137.084C212.643 136.772 212.977 136.52 213.164 136.327L214.338 138.341C214.225 138.483 214.047 138.659 213.826 138.86C213.597 139.064 213.302 139.262 212.948 139.453C212.592 139.644 212.15 139.807 211.638 139.941C211.13 140.072 210.539 140.137 209.868 140.137C208.914 140.137 208.021 139.98 207.192 139.67C206.355 139.357 205.622 138.843 205.002 138.124C204.384 137.407 203.893 136.472 203.537 135.324C203.186 134.175 203.001 132.747 203.001 131.049C203.001 129.395 203.218 127.995 203.645 126.845C204.073 125.696 204.636 124.768 205.331 124.06C206.021 123.353 206.783 122.84 207.632 122.516C208.483 122.192 209.332 122.031 210.188 122.031C210.835 122.031 211.4 122.093 211.893 122.211C212.381 122.331 212.799 122.48 213.145 122.661C213.494 122.84 213.78 123.032 214.001 123.235C214.23 123.438 214.412 123.613 214.559 123.755L213.338 125.803ZM199.354 139.705H196.704V137.766H196.639C196.565 137.908 196.408 138.12 196.17 138.393C195.935 138.669 195.629 138.933 195.259 139.185C194.886 139.435 194.437 139.656 193.915 139.85C193.393 140.042 192.806 140.137 192.164 140.137C191.397 140.137 190.712 140.023 190.106 139.796C189.5 139.568 188.979 139.202 188.551 138.7C188.12 138.196 187.79 137.544 187.567 136.741C187.337 135.94 187.224 134.952 187.224 133.777V122.463H190.126V133.564C190.126 134.998 190.356 136.022 190.82 136.633C191.284 137.245 192.003 137.549 192.984 137.549C193.816 137.549 194.521 137.341 195.093 136.92C195.668 136.502 196.122 136.089 196.456 135.68V122.463H199.354V139.705ZM176.777 137.549C177.23 137.549 177.635 137.49 177.993 137.37C178.35 137.252 178.662 137.101 178.925 136.92C179.185 136.741 179.404 136.557 179.584 136.364C179.764 136.172 179.902 136.006 179.996 135.862V125.229C179.733 125.062 179.43 124.917 179.086 124.798C178.739 124.677 178.306 124.618 177.777 124.618C177.114 124.618 176.484 124.732 175.9 124.959C175.316 125.187 174.809 125.564 174.379 126.09C173.951 126.619 173.611 127.301 173.36 128.138C173.112 128.977 172.983 130.006 172.983 131.227C172.983 132.425 173.088 133.424 173.289 134.226C173.493 135.03 173.771 135.676 174.131 136.166C174.488 136.659 174.893 137.011 175.344 137.224C175.8 137.443 176.275 137.549 176.777 137.549V137.549ZM169.983 131.336C169.983 129.588 170.208 128.126 170.658 126.954C171.111 125.779 171.694 124.833 172.41 124.114C173.128 123.395 173.939 122.887 174.845 122.589C175.752 122.289 176.657 122.139 177.565 122.139C178.114 122.139 178.589 122.181 178.994 122.265C179.4 122.35 179.733 122.451 179.996 122.571V114.307L182.896 113.983V139.705H180.247V137.872H180.173C180.105 138.018 179.973 138.213 179.781 138.465C179.589 138.718 179.329 138.967 178.994 139.22C178.662 139.472 178.243 139.688 177.744 139.868C177.241 140.047 176.657 140.137 175.988 140.137C175.182 140.137 174.408 139.975 173.685 139.651C172.956 139.328 172.32 138.813 171.77 138.105C171.219 137.401 170.785 136.49 170.463 135.377C170.141 134.264 169.983 132.916 169.983 131.336V131.336ZM166.581 117.396H157.779V125.948H165.865V128.425H157.779V137.119H167.477L167.298 139.705H154.667V114.918H166.797L166.581 117.396ZM144.256 124.833H140.752V139.705H137.854V124.833H135.777V122.893L137.854 122.499V119.05C137.854 118.115 137.984 117.313 138.245 116.641C138.508 115.973 138.854 115.42 139.286 114.989C139.714 114.557 140.213 114.246 140.788 114.055C141.361 113.865 141.967 113.767 142.612 113.767C143.231 113.767 143.756 113.852 144.185 114.02C144.616 114.186 144.902 114.32 145.044 114.415L144.437 116.821C144.293 116.726 144.09 116.623 143.828 116.515C143.566 116.409 143.244 116.354 142.863 116.354C142.169 116.354 141.645 116.571 141.287 117.001C140.93 117.433 140.752 118.223 140.752 119.375V122.463H144.616L144.256 124.833ZM130.59 131.085C130.59 128.785 130.256 127.115 129.588 126.072C128.92 125.032 127.989 124.511 126.797 124.511C125.606 124.511 124.681 125.032 124.024 126.072C123.369 127.115 123.042 128.785 123.042 131.085C123.042 133.383 123.376 135.036 124.043 136.041C124.71 137.047 125.641 137.549 126.833 137.549C128.026 137.549 128.95 137.047 129.606 136.041C130.262 135.036 130.59 133.383 130.59 131.085ZM120.037 131.085C120.037 129.504 120.222 128.138 120.592 126.99C120.961 125.839 121.461 124.9 122.093 124.171C122.727 123.438 123.451 122.9 124.276 122.553C125.099 122.205 125.974 122.031 126.905 122.031C127.858 122.031 128.741 122.205 129.552 122.553C130.363 122.9 131.068 123.438 131.663 124.171C132.26 124.9 132.732 125.839 133.075 126.99C133.421 128.138 133.596 129.504 133.596 131.085C133.596 132.687 133.416 134.065 133.057 135.215C132.701 136.364 132.205 137.304 131.574 138.036C130.942 138.765 130.208 139.298 129.374 139.633C128.538 139.968 127.657 140.137 126.725 140.137C125.772 140.137 124.89 139.968 124.08 139.633C123.268 139.298 122.565 138.765 121.968 138.036C121.372 137.304 120.901 136.371 120.555 135.233C120.21 134.095 120.037 132.711 120.037 131.085V131.085ZM325.608 86.2371L320.239 104.485C319.619 106.593 318.859 108.185 317.967 109.264C317.075 110.34 315.779 110.879 314.084 110.879C313.731 110.879 313.43 110.837 313.187 110.755C312.956 110.669 312.788 110.605 312.692 110.555V108.043C312.815 108.09 312.966 108.144 313.154 108.204C313.351 108.263 313.598 108.295 313.904 108.295C314.933 108.295 315.712 107.971 316.248 107.324C316.789 106.676 317.244 105.685 317.628 104.342L317.878 103.445L312.331 86.2371H315.445L318.126 95.7921C318.39 96.7755 318.633 97.6916 318.845 98.5404C319.061 99.3915 319.189 100.151 319.239 100.822H319.309C319.362 100.151 319.475 99.3963 319.648 98.5572C319.831 97.7205 320.047 96.8092 320.309 95.8282L322.747 86.2371H325.608ZM311.297 88.7857C311.223 88.7401 311.069 88.68 310.824 88.6054C310.593 88.5357 310.266 88.4972 309.867 88.4972C308.956 88.4972 308.251 88.7449 307.734 89.2354C307.222 89.7259 306.857 90.2572 306.65 90.8319V103.481H303.748V86.2371H306.395V88.5718H306.467C306.582 88.2351 306.739 87.9057 306.926 87.5811C307.123 87.2589 307.359 86.9704 307.65 86.7204C307.931 86.4703 308.275 86.2708 308.669 86.1265C309.064 85.9846 309.533 85.9125 310.078 85.9125C310.482 85.9125 310.809 85.9486 311.064 86.0207C311.312 86.0904 311.509 86.1529 311.651 86.1986L311.297 88.7857ZM300.456 88.6054H296.703V98.1629C296.703 99.3843 296.854 100.216 297.162 100.659C297.477 101.103 297.999 101.324 298.742 101.324C299.167 101.324 299.535 101.265 299.85 101.145C300.16 101.024 300.379 100.916 300.531 100.822L300.92 103.158C300.797 103.252 300.521 103.401 300.062 103.605C299.61 103.807 299.004 103.91 298.239 103.91C296.76 103.91 295.652 103.498 294.909 102.673C294.171 101.845 293.801 100.476 293.801 98.5572V88.6054H291.726V86.6675L293.801 86.2371L294.125 81.4235H296.703V86.2371H300.812L300.456 88.6054ZM288.006 89.7186C287.819 89.5047 287.47 89.2113 286.967 88.841C286.465 88.4684 285.808 88.2856 285.001 88.2856C284.236 88.2856 283.657 88.4636 283.248 88.8218C282.839 89.1825 282.642 89.6129 282.642 90.1154C282.642 90.7622 282.832 91.2959 283.197 91.7119C283.568 92.1351 284.133 92.5823 284.897 93.0607L285.972 93.7075C287.138 94.4 288.052 95.1502 288.725 95.9532C289.391 96.7563 289.725 97.7926 289.725 99.0597C289.725 100.425 289.254 101.575 288.311 102.51C287.371 103.445 286.02 103.91 284.248 103.91C283.563 103.91 282.952 103.84 282.428 103.694C281.897 103.552 281.444 103.384 281.045 103.194C280.651 103 280.329 102.792 280.064 102.565C279.802 102.335 279.581 102.127 279.422 101.936L280.822 99.6344C280.961 99.781 281.132 99.9469 281.331 100.139C281.533 100.332 281.784 100.517 282.07 100.695C282.351 100.875 282.676 101.024 283.034 101.145C283.39 101.265 283.808 101.324 284.291 101.324C285.145 101.324 285.799 101.134 286.253 100.75C286.705 100.365 286.931 99.8989 286.931 99.3483C286.931 98.9419 286.878 98.5885 286.775 98.2879C286.662 97.9898 286.503 97.7205 286.292 97.4824C286.075 97.242 285.808 97.0136 285.508 96.7996C285.193 96.5856 284.837 96.3428 284.428 96.0807L283.351 95.3954C282.281 94.703 281.445 93.972 280.839 93.205C280.23 92.438 279.92 91.457 279.92 90.2572C279.92 89.6128 280.045 89.019 280.3 88.4804C280.548 87.9442 280.901 87.4753 281.351 87.0786C281.808 86.6843 282.334 86.3741 282.942 86.1457C283.553 85.9197 284.202 85.8043 284.897 85.8043C285.563 85.8043 286.133 85.8716 286.612 86.0015C287.09 86.1337 287.504 86.2996 287.845 86.5064C288.194 86.7083 288.475 86.9151 288.706 87.1171C288.937 87.3191 289.115 87.4922 289.259 87.6364L288.006 89.7186ZM274.734 82.0679C274.133 82.0679 273.664 81.8779 273.303 81.4932C272.94 81.1133 272.767 80.6084 272.767 79.9833C272.767 79.387 272.94 78.8965 273.303 78.5118C273.664 78.1295 274.133 77.9371 274.734 77.9371C275.304 77.9371 275.773 78.1295 276.124 78.5118C276.487 78.8965 276.665 79.387 276.665 79.9833C276.665 80.6084 276.487 81.1133 276.124 81.4932C275.773 81.8779 275.304 82.0679 274.734 82.0679ZM276.162 103.481H273.27V86.2371H276.162V103.481ZM266.037 103.481V92.3779C266.037 90.916 265.794 89.8701 265.304 89.2354C264.816 88.6006 264.07 88.2856 263.065 88.2856C262.209 88.2856 261.493 88.4972 260.923 88.93C260.346 89.3604 259.894 89.7788 259.562 90.1875V103.481H256.67V86.2371H259.312V88.175H259.389C259.459 88.0332 259.613 87.8216 259.848 87.5451C260.093 87.271 260.396 87.0089 260.784 86.7564C261.168 86.5064 261.613 86.2852 262.14 86.0904C262.661 85.9005 263.262 85.8043 263.928 85.8043C264.695 85.8043 265.381 85.9197 266.003 86.1457C266.624 86.3741 267.15 86.7372 267.574 87.2397C268.006 87.7446 268.343 88.3986 268.583 89.1993C268.812 90 268.939 90.9906 268.939 92.1639V103.481H266.037ZM250.803 82.0679C250.202 82.0679 249.728 81.8779 249.367 81.4932C249.009 81.1133 248.831 80.6084 248.831 79.9833C248.831 79.387 249.009 78.8965 249.367 78.5118C249.728 78.1295 250.202 77.9371 250.803 77.9371C251.373 77.9371 251.832 78.1295 252.188 78.5118C252.551 78.8965 252.729 79.387 252.729 79.9833C252.729 80.6084 252.551 81.1133 252.188 81.4932C251.832 81.8779 251.373 82.0679 250.803 82.0679ZM252.231 103.481H249.334V86.2371H252.231V103.481ZM244.289 78.6921V103.481H241.284V91.6951C241.284 90.9545 241.284 90.2236 241.284 89.5047C241.284 88.7857 241.289 88.1149 241.298 87.4922C241.313 86.8694 241.332 86.3188 241.356 85.8404C241.378 85.3619 241.402 84.9916 241.426 84.7271H241.318C241.2 85.2801 240.957 86.1698 240.584 87.4032C240.214 88.6367 239.791 89.9591 239.317 91.3729L235.237 103.481H232.77L228.69 91.3729C228.216 89.9591 227.793 88.6367 227.423 87.4032C227.05 86.1698 226.807 85.2801 226.689 84.7271H226.586C226.605 85.0133 226.629 85.3955 226.651 85.8764C226.675 86.3549 226.694 86.9007 226.708 87.5114C226.718 88.1221 226.723 88.7857 226.723 89.5047C226.723 90.2236 226.723 90.9545 226.723 91.6951V103.481H223.713V78.6921H227.187L233.02 95.7921C233.282 96.5856 233.518 97.355 233.715 98.11C233.922 98.8626 234.044 99.5166 234.09 100.067H234.16C234.189 99.5166 234.302 98.8698 234.503 98.1268C234.705 97.3863 234.936 96.6193 235.198 95.8282L241.031 78.6921H244.289ZM210.229 99.4564C210.229 100.175 210.332 100.678 210.529 100.964C210.736 101.253 211.085 101.396 211.587 101.396C211.854 101.396 212.07 101.373 212.248 101.324C212.426 101.276 212.563 101.229 212.662 101.18L212.91 103.336C212.765 103.407 212.506 103.505 212.121 103.623C211.741 103.744 211.229 103.802 210.587 103.802C209.613 103.802 208.82 103.505 208.223 102.906C207.627 102.307 207.331 101.241 207.331 99.7065V78.0814L210.229 77.7568V99.4564ZM197.279 101.434C197.68 101.434 198.043 101.373 198.353 101.253C198.664 101.134 198.93 100.988 199.156 100.822C199.385 100.654 199.575 100.469 199.729 100.264C199.887 100.062 200.02 99.8892 200.142 99.745V95.9364L199.212 95.9701C197.827 96.0206 196.779 96.2586 196.067 96.6914C195.348 97.1218 194.985 97.8167 194.985 98.7736C194.985 99.6584 195.187 100.324 195.596 100.769C196.004 101.211 196.565 101.434 197.279 101.434ZM192.092 99.0958C192.092 98.0907 192.28 97.254 192.667 96.5856C193.047 95.9124 193.559 95.3642 194.201 94.9482C194.85 94.5274 195.6 94.2269 196.471 94.049C197.339 93.8686 198.269 93.7797 199.245 93.7797H200.142V92.1279C200.142 90.666 199.887 89.6585 199.373 89.1103C198.856 88.5597 198.137 88.2856 197.207 88.2856C196.348 88.2856 195.634 88.4684 195.062 88.841C194.487 89.2113 194.033 89.5407 193.703 89.8293L192.482 87.8865C192.674 87.6965 192.919 87.4826 193.215 87.2397C193.516 87.0017 193.876 86.7733 194.309 86.5593C194.742 86.3429 195.225 86.165 195.776 86.0207C196.324 85.8764 196.944 85.8043 197.635 85.8043C199.399 85.8043 200.739 86.2948 201.64 87.2782C202.551 88.2592 203.001 89.8389 203.001 92.0196V99.8892C203.001 100.63 203.025 101.355 203.078 102.059C203.124 102.768 203.172 103.242 203.218 103.481H200.467L200.354 101.575H200.284C200.188 101.793 200.049 102.036 199.856 102.313C199.659 102.589 199.423 102.84 199.137 103.066C198.851 103.294 198.507 103.492 198.099 103.66C197.695 103.829 197.216 103.91 196.673 103.91C196.028 103.91 195.427 103.791 194.865 103.552C194.304 103.312 193.812 102.976 193.398 102.547C192.98 102.115 192.662 101.606 192.431 101.017C192.205 100.433 192.092 99.7931 192.092 99.0958V99.0958ZM190.407 88.7857C190.337 88.7401 190.181 88.68 189.943 88.6054C189.707 88.5357 189.387 88.4972 188.979 88.4972C188.07 88.4972 187.361 88.7449 186.848 89.2354C186.334 89.7259 185.971 90.2572 185.755 90.8319V103.481H182.857V86.2371H185.506V88.5718H185.576C185.695 88.2351 185.853 87.9057 186.043 87.5811C186.233 87.2589 186.472 86.9704 186.76 86.7204C187.045 86.4703 187.385 86.2708 187.778 86.1265C188.173 85.9846 188.647 85.9125 189.19 85.9125C189.599 85.9125 189.924 85.9486 190.176 86.0207C190.431 86.0904 190.623 86.1529 190.765 86.1986L190.407 88.7857ZM173.557 88.175C172.531 88.175 171.712 88.6054 171.089 89.4686C170.47 90.3318 170.111 91.5773 170.015 93.205H176.275C176.298 93.0848 176.315 92.9117 176.33 92.6809C176.343 92.4573 176.349 92.212 176.349 91.9475C176.349 90.7501 176.108 89.822 175.634 89.1632C175.155 88.5044 174.464 88.175 173.557 88.175V88.175ZM178.994 92.0533C178.994 92.7987 178.97 93.4382 178.925 93.9768C178.879 94.5178 178.828 94.9891 178.781 95.3954H170.015C170.111 97.4319 170.545 98.9299 171.323 99.8892C172.097 100.846 173.211 101.324 174.667 101.324C175.167 101.324 175.621 101.265 176.025 101.145C176.432 101.024 176.785 100.88 177.081 100.714C177.38 100.548 177.628 100.38 177.832 100.209C178.033 100.046 178.184 99.9109 178.282 99.8147L179.353 101.863C179.232 101.984 179.056 102.157 178.817 102.384C178.578 102.612 178.255 102.84 177.848 103.066C177.443 103.294 176.946 103.492 176.349 103.66C175.752 103.829 175.048 103.91 174.238 103.91C173.163 103.91 172.192 103.732 171.323 103.371C170.451 103.013 169.711 102.455 169.102 101.702C168.495 100.947 168.024 99.9878 167.69 98.8289C167.356 97.6676 167.189 96.273 167.189 94.6429C167.189 93.1088 167.361 91.784 167.709 90.6732C168.055 89.5576 168.525 88.6439 169.121 87.9226C169.717 87.2061 170.411 86.6723 171.196 86.3285C171.984 85.9774 172.83 85.8043 173.736 85.8043C175.384 85.8043 176.668 86.3285 177.599 87.3672C178.529 88.4083 178.994 89.9711 178.994 92.0533V92.0533ZM157.422 101.324C157.875 101.324 158.282 101.265 158.636 101.145C158.995 101.024 159.305 100.875 159.568 100.695C159.832 100.517 160.052 100.332 160.231 100.139C160.41 99.9469 160.546 99.781 160.641 99.6344V89.0021C160.377 88.8338 160.075 88.6896 159.73 88.5718C159.384 88.4515 158.948 88.389 158.423 88.389C157.755 88.389 157.131 88.5044 156.546 88.7329C155.962 88.9589 155.453 89.3364 155.026 89.8629C154.596 90.3919 154.255 91.0747 154.005 91.9115C153.755 92.7482 153.629 93.7797 153.629 95.0011C153.629 96.1985 153.731 97.1987 153.934 98.0018C154.137 98.8048 154.417 99.4492 154.774 99.9397C155.132 100.433 155.537 100.786 155.991 101C156.445 101.218 156.92 101.324 157.422 101.324V101.324ZM150.624 95.1093C150.624 93.3613 150.85 91.8994 151.305 90.7261C151.759 89.5528 152.342 88.6054 153.057 87.8865C153.773 87.17 154.585 86.6603 155.49 86.3621C156.397 86.0616 157.302 85.9125 158.21 85.9125C158.758 85.9125 159.234 85.9558 159.64 86.0375C160.045 86.1217 160.377 86.2251 160.641 86.3429V78.0814L163.541 77.7568V103.481H160.892V101.648H160.819C160.748 101.793 160.617 101.989 160.426 102.241C160.236 102.492 159.974 102.743 159.64 102.995C159.305 103.245 158.888 103.462 158.389 103.642C157.888 103.822 157.302 103.91 156.635 103.91C155.824 103.91 155.055 103.75 154.328 103.425C153.599 103.102 152.963 102.589 152.413 101.881C151.864 101.173 151.431 100.264 151.107 99.1511C150.787 98.0379 150.624 96.6914 150.624 95.1093V95.1093ZM142.11 88.175C141.085 88.175 140.263 88.6054 139.64 89.4686C139.021 90.3318 138.663 91.5773 138.567 93.205H144.828C144.852 93.0848 144.87 92.9117 144.882 92.6809C144.894 92.4573 144.902 92.212 144.902 91.9475C144.902 90.7501 144.663 89.822 144.185 89.1632C143.708 88.5044 143.016 88.175 142.11 88.175V88.175ZM147.547 92.0533C147.547 92.7987 147.524 93.4382 147.478 93.9768C147.43 94.5178 147.382 94.9891 147.333 95.3954H138.567C138.663 97.4319 139.101 98.9299 139.875 99.8892C140.65 100.846 141.763 101.324 143.218 101.324C143.721 101.324 144.173 101.265 144.578 101.145C144.984 101.024 145.335 100.88 145.636 100.714C145.934 100.548 146.182 100.38 146.384 100.209C146.587 100.046 146.738 99.9109 146.833 99.8147L147.906 101.863C147.788 101.984 147.608 102.157 147.369 102.384C147.132 102.612 146.809 102.84 146.403 103.066C145.997 103.294 145.498 103.492 144.902 103.66C144.306 103.829 143.6 103.91 142.79 103.91C141.717 103.91 140.746 103.732 139.875 103.371C139.004 103.013 138.263 102.455 137.656 101.702C137.047 100.947 136.577 99.9878 136.242 98.8289C135.908 97.6676 135.741 96.273 135.741 94.6429C135.741 93.1088 135.915 91.784 136.261 90.6732C136.606 89.5576 137.077 88.6439 137.674 87.9226C138.269 87.2061 138.963 86.6723 139.749 86.3285C140.537 85.9774 141.382 85.8043 142.29 85.8043C143.935 85.8043 145.223 86.3285 146.153 87.3672C147.082 88.4083 147.547 89.9711 147.547 92.0533ZM121.431 103.481V78.6921H133.558L133.344 81.171H124.545V90.3318H132.665V92.8107H124.545V103.481H121.431" fill="black"/>
<path d="M42.4617 101.483C42.5435 100.81 42.5916 100.11 42.5916 99.3963C42.5916 99.0092 42.5942 98.5572 42.5454 98.0451C48.5386 97.9585 53.7944 93.6234 53.7944 88.6391C53.7944 86.1024 52.1471 84.1861 51.2154 83.044C51.4268 83.0008 51.6352 82.9503 51.8475 82.8998C52.7247 83.6644 55.2154 86.3886 55.2154 89.8292C55.2154 95.809 49.2619 101.36 42.4617 101.483V101.483ZM36.4255 80.6565C36.3137 79.9881 36.062 79.3845 35.677 78.8676C35.6958 78.2593 35.9456 77.675 36.9232 78.1559C36.3955 78.6993 36.804 79.6587 36.804 79.6587C36.804 79.6587 37.885 79.1561 37.6607 78.4396C39.2658 78.8243 38.1115 80.9883 36.4255 80.6565V80.6565ZM35.0336 83.7245C34.8184 82.8325 34.363 81.914 33.7807 81.2215C33.2548 80.5964 32.3794 79.8534 31.2015 79.8534C30.6624 79.8534 29.7617 80.1059 29.1878 80.3487C28.9719 79.9568 28.5531 79.0119 28.5531 78.5839C28.5531 78.1487 29.2912 77.7039 30.7009 77.7039C33.8023 77.7039 35.6573 79.1104 35.6573 81.4716C35.6573 82.3011 35.3293 83.0561 35.0336 83.7245V83.7245ZM43.0001 123.878C43.3608 123.878 43.5363 123.937 43.7447 124.013C44.6389 126.454 48.0803 131.057 48.2248 131.254L48.2578 131.295L48.3085 131.283C49.151 131.148 51.3066 130.82 53.1115 130.82H53.1519C53.3493 130.82 53.5701 130.82 53.7126 130.958C53.8292 131.077 53.8884 131.283 53.8884 131.575C53.8884 132.026 53.6968 132.796 53.4705 133.126C52.8365 132.433 51.8108 132.124 50.1729 132.124C49.6769 132.124 49.0945 132.27 48.78 132.354L48.6514 132.382L48.5021 132.42L49.4506 133.373C50.9091 134.838 52.1753 136.102 52.1753 136.947C52.1753 137.453 51.6821 138.113 51.2267 138.408C51.1298 136.863 49.5773 134.799 48.0671 133.644L47.9385 133.547L47.912 134.089C47.8916 134.457 47.8596 135.013 47.8596 135.602C47.8596 138.539 47.5627 138.985 46.5485 138.985C46.3915 138.985 46.1539 138.941 46.0056 138.886C46.5776 138.178 46.8038 137.242 46.8038 135.6L46.7964 134.842L46.788 134.231C46.788 133.56 46.8575 133.059 46.9118 132.66L46.9409 132.433L46.7803 132.411C46.3052 132.344 45.4252 132.223 44.7498 132.223C43.3042 132.223 42.3237 132.356 41.6137 133.028C41.1451 132.649 40.6642 131.993 40.6642 131.579C40.6642 130.964 41.0427 130.917 41.5404 130.917C41.794 130.917 42.0299 130.951 42.3548 130.995C42.9756 131.086 43.913 131.225 45.8375 131.225H45.9577L45.9209 131.105C45.4345 129.704 44.0924 127.663 41.9414 125.039C42.1321 124.337 42.3237 123.878 43.0001 123.878V123.878ZM24.4401 131.105L24.3997 131.225H24.5199C26.4454 131.225 27.3838 131.086 28.0053 130.995C28.3314 130.951 28.5634 130.917 28.8161 130.917C29.3138 130.917 29.6961 130.964 29.6961 131.579C29.6961 131.993 29.2123 132.649 28.7466 133.028C28.0363 132.356 27.0522 132.223 25.6096 132.223C24.9342 132.223 24.0523 132.344 23.5779 132.411L23.5038 132.42L23.4201 132.433L23.4483 132.66C23.5038 133.059 23.5723 133.56 23.5723 134.231L23.5649 134.842L23.5572 135.6C23.5572 137.242 23.7818 138.178 24.3547 138.886C24.2054 138.941 23.9659 138.985 23.8099 138.985C22.7974 138.985 22.5017 138.539 22.5017 135.602C22.5017 135.013 22.4687 134.457 22.448 134.089L22.4209 133.544L22.2922 133.644C20.7828 134.799 19.2286 136.863 19.1345 138.408C18.6782 138.113 18.186 137.453 18.186 136.947C18.186 136.102 19.4483 134.838 20.9088 133.373L21.7503 132.529L21.8544 132.42L21.5793 132.354C21.2656 132.27 20.6823 132.124 20.1865 132.124C18.5457 132.124 17.5229 132.433 16.8879 133.126C16.6616 132.796 16.471 132.026 16.471 131.575C16.471 131.283 16.5272 131.077 16.6438 130.958C16.7874 130.82 17.01 130.82 17.2045 130.82H17.2457C19.0499 130.82 21.2103 131.148 22.0528 131.283L22.1016 131.295L22.1345 131.254C22.28 131.057 25.7204 126.454 26.6144 124.013C26.8202 123.937 26.9986 123.878 27.3564 123.878C28.0363 123.878 28.2244 124.337 28.4177 125.039C26.2669 127.663 24.9277 129.704 24.4401 131.105ZM15.1418 89.8292C15.1418 86.3886 17.6347 83.6644 18.5109 82.8998C18.7222 82.9503 18.9326 83.0008 19.143 83.044C18.2103 84.1861 16.5647 86.1024 16.5647 88.6391C16.5647 93.6715 21.9241 98.0451 27.9895 98.0451C27.9519 98.4779 27.9293 98.9299 27.9293 99.3963C27.9293 100.139 27.9707 100.832 28.045 101.483C21.1857 101.443 15.1418 95.8523 15.1418 89.8292V89.8292ZM61.1588 100.435C64.2376 105.322 66.6459 105.24 70.2852 105.24C67.2741 102.922 65.2831 99.9566 64.3353 98.4418L58.7131 89.4085C58.1627 86.6194 56.7258 84.0082 54.5758 82.0703C55.2981 81.7962 55.8992 81.5052 56.2618 81.2287C52.5903 81.2287 48.9536 79.3581 46.9522 79.3581C45.6646 79.3581 44.8371 80.1323 44.8371 81.1518C44.9198 82.2891 46.0854 83.4456 48.24 83.4456C48.7312 83.4456 49.353 83.3831 50.0394 83.27C51.2061 84.9026 52.1471 86.3789 52.1471 88.4828C52.1471 92.438 47.4369 95.5204 42.6834 95.5204C42.4139 95.5204 42.1595 95.5108 41.8907 95.4892C41.4589 94.5106 40.0273 92.8636 40.0273 90.9906C40.0273 87.8504 42.0694 85.2849 42.0694 82.1712C42.0694 80.2381 41.1292 79.0407 40.7676 78.5406C41.3516 77.9972 41.9912 77.3288 42.1379 76.872C41.7998 77.0186 41.3997 77.0379 40.8107 77.0379C38.5322 77.0379 36.6763 76.4416 34.8646 76.4416C33.8324 76.4416 33.5535 76.7613 33.5535 77.0667C33.5535 77.1773 33.5703 77.2927 33.5994 77.3504C33.2144 77.1966 32.8538 77.1004 32.4227 77.0186C31.8891 76.9176 31.3143 76.8647 30.7009 76.8647C28.4994 76.8647 27.719 77.7904 27.719 78.5839C27.719 79.2571 28.245 80.4834 28.8433 81.4163C29.7016 80.9835 30.7302 80.6901 31.2015 80.6901C32.3681 80.6901 33.4087 81.8058 33.9581 83.1282C33.1731 83.2244 33.0209 83.2604 32.2272 83.2604C30.0858 83.2604 28.6281 82.4886 28.3285 82.4886C28.2994 82.4886 28.2422 82.5055 28.2422 82.5511C28.2422 82.8541 28.8469 83.65 30.0464 84.09C31.6223 84.6694 33.9872 84.9098 34.3808 84.9748C34.3808 85.0445 33.9798 85.7947 33.5347 85.9389C33.4388 85.9702 33.3664 85.9726 33.2556 85.951C31.6074 85.624 31.1471 85.4845 29.0572 84.6862C28.9916 84.6622 28.956 84.7031 28.956 84.768C28.956 85.5999 31.0955 87.4321 33.0134 88.1317C31.4112 90.1875 29.4105 92.2865 28.4684 95.4892C28.2018 95.5108 27.9435 95.5204 27.674 95.5204C22.9215 95.5204 18.2103 92.438 18.2103 88.4828C18.2103 86.3789 19.1552 84.9026 20.3216 83.27C21.0073 83.3831 21.6301 83.4456 22.1174 83.4456C24.2739 83.4456 25.4396 82.2891 25.5249 81.1518C25.5249 80.1323 24.6976 79.3581 23.4069 79.3581C21.4055 79.3581 17.7689 81.2287 14.0947 81.2287C14.4592 81.5052 15.0603 81.7962 15.7807 82.0703C13.6307 84.0082 12.1938 86.6194 11.6444 89.4085L6.02507 98.4418C5.07822 99.9566 3.08137 102.922 0.0722656 105.24C3.70987 105.24 6.12076 105.322 9.19959 100.435L12.081 95.8042C12.2953 96.4053 12.558 96.9895 12.8673 97.5642L7.13422 106.773C6.17895 108.3 4.2047 111.241 1.18045 113.572C4.81902 113.572 7.23087 113.656 10.3087 108.771L15.2423 100.839C15.6107 101.234 16.0004 101.619 16.4099 101.989L9.44652 113.182C8.48957 114.71 6.52374 117.645 3.49565 119.975C7.13326 119.975 9.54414 120.064 12.621 115.174L19.4106 104.262C19.8578 104.544 20.3161 104.82 20.7876 105.081L12.4999 118.394C11.5448 119.927 9.57804 122.852 6.54995 125.187C10.1885 125.187 12.6004 125.272 15.6773 120.388L24.21 106.672C24.7154 106.867 25.2273 107.053 25.7486 107.22L16.1065 122.716C15.1625 124.226 13.1517 127.202 10.1585 129.509C13.7941 129.509 16.205 129.59 19.2839 124.708L29.5588 108.193C29.6632 108.211 29.7685 108.229 29.8687 108.25C30.1488 109.144 30.3431 109.973 30.3431 110.805C30.3431 115.993 26.9527 120.58 22.884 124.116C23.1441 124.232 23.5959 124.269 24.0167 124.269C24.8563 124.269 25.3982 124.226 25.7796 124.159C24.8356 126.31 22.8116 129.09 21.7878 130.528C20.455 130.286 18.5166 130.099 17.2457 130.099C15.9177 130.099 15.7674 130.879 15.7674 131.575C15.7674 132.787 16.331 133.749 16.9893 134.287C17.2346 133.669 17.7323 132.839 20.1865 132.839C20.2324 132.839 20.318 132.846 20.4334 132.855C19.7159 133.655 17.4683 135.477 17.4683 136.947C17.4683 137.919 18.5296 139.375 19.9309 139.375C19.8475 139.063 19.8597 138.774 19.8597 138.558C19.8597 137.367 20.9078 135.976 21.7936 135.007C21.7671 135.294 21.7813 135.265 21.7813 135.602C21.7813 138.413 22.034 139.705 23.8099 139.705C24.6834 139.705 25.2845 139.224 25.492 139.08C24.3369 138.013 24.2785 137.176 24.2785 135.6C24.2814 135.19 24.2824 134.787 24.2889 134.234C24.2917 133.875 24.2862 133.396 24.228 133.051C24.8657 132.964 25.121 132.964 25.6096 132.964C25.6096 132.964 28.1352 132.763 28.7428 134.08C29.4282 133.45 30.4229 132.559 30.4229 131.579C30.4229 130.928 30.1169 130.194 28.8161 130.194C28.3239 130.194 26.775 130.499 25.4807 130.499C25.8284 129.722 27.3771 127.445 28.7192 125.794C28.924 126.433 29.2405 127.127 29.9469 127.692C30.0416 126.631 30.6624 123.271 32.3154 121.308C32.508 122.634 32.7692 123.995 32.7692 126.868C32.7692 133.852 31.0955 139.009 27.5444 139.994C28.0082 140.799 28.9841 141.525 29.9986 141.525C31.2965 141.525 32.0026 140.054 32.7249 138.661C33.1007 139.688 34.1385 142.204 35.1784 142.204C36.218 142.204 37.2567 139.688 37.6316 138.661C38.3538 140.054 39.06 141.525 40.3608 141.525C41.3733 141.525 42.3511 140.799 42.813 139.994C39.2639 139.009 37.5892 133.852 37.5892 126.868C37.5892 123.995 37.8484 122.634 38.041 121.308C39.6941 123.271 40.3178 126.631 40.4115 127.692C41.117 127.127 41.4363 126.433 41.6382 125.794C42.9794 127.445 44.531 129.722 44.8813 130.499C43.5834 130.499 42.0335 130.194 41.5404 130.194C40.2425 130.194 39.9364 130.928 39.9364 131.579C39.9364 132.559 40.9299 133.45 41.6166 134.08C42.2213 132.763 44.7498 132.964 44.7498 132.964C45.2391 132.964 45.4966 132.964 46.1323 133.051C46.0741 133.396 46.0693 133.875 46.0722 134.234C46.0787 134.787 46.0796 135.19 46.0806 135.6C46.0806 137.176 46.0234 138.013 44.869 139.08C45.0758 139.224 45.6769 139.705 46.5485 139.705C48.3253 139.705 48.5809 138.413 48.5809 135.602C48.5809 135.265 48.5913 135.294 48.5677 135.007C49.4516 135.976 50.5025 137.367 50.5025 138.558C50.5025 138.774 50.5138 139.063 50.4282 139.375C51.8288 139.375 52.8908 137.919 52.8908 136.947C52.8908 135.477 50.6444 133.655 49.9257 132.855C50.0443 132.846 50.1258 132.839 50.1729 132.839C52.629 132.839 53.1228 133.669 53.369 134.287C54.0254 133.749 54.589 132.787 54.589 131.575C54.589 130.879 54.4416 130.099 53.1115 130.099C51.8427 130.099 49.906 130.286 48.5725 130.528C47.5478 129.09 45.5247 126.31 44.5807 124.159C44.9592 124.226 45.506 124.269 46.3427 124.269C46.7644 124.269 47.2172 124.232 47.4773 124.116C43.4076 120.58 40.0134 115.993 40.0134 110.805C40.0134 109.973 40.2105 109.144 40.4877 108.25C40.5899 108.229 40.6962 108.211 40.7986 108.193L51.0745 124.708C54.1514 129.59 56.5652 129.509 60.1999 129.509C57.2057 127.202 55.194 124.226 54.2546 122.716L44.6108 107.22C45.134 107.053 45.6459 106.867 46.1501 106.672L54.6821 120.388C57.758 125.272 60.1689 125.187 63.8075 125.187C60.7794 122.852 58.8126 119.927 57.8576 118.394L49.5718 105.081C50.0442 104.82 50.5035 104.544 50.9469 104.262L57.7364 115.174C60.8169 120.064 63.2242 119.975 66.8599 119.975C63.8356 117.645 61.8698 114.71 60.9109 113.182L53.9504 101.989C54.3589 101.619 54.7487 101.234 55.1149 100.839L60.0516 108.771C63.1275 113.656 65.5394 113.572 69.1789 113.572C66.1518 111.241 64.1814 108.3 63.2242 106.773L57.4931 97.5642C57.8011 96.9895 58.0631 96.4053 58.2783 95.8042L61.1588 100.435" fill="black"/>
<path d="M94.5539 200.078H99.0631V260.457H88.5391V200.078H94.5539" fill="#F5CF00"/>
<path d="M94.5539 139.403H99.0631V200.078H88.5391V139.403H94.5539Z" fill="#E6000C"/>
<path d="M99.0631 79.3315V139.705H88.5391V79.3315H99.0631Z" fill="black"/>
<path d="M121.132 13.8809C121.089 15.3623 121.089 18.8619 125.662 18.819C128.217 18.819 130.471 17.767 130.471 14.5035C130.471 9.58694 123.515 10.0807 123.515 6.66703C123.515 4.99238 124.717 4.39122 125.898 4.39122C127.766 4.39122 128.303 5.50766 128.281 7.20378H130.343C130.471 4.0477 128.883 2.67363 126.049 2.67363C123.451 2.67363 121.497 4.13358 121.497 6.88173C121.497 11.5407 128.453 11.1542 128.453 14.5894C128.453 16.4358 127.251 17.1014 125.684 17.1014C124.417 17.1014 123.086 16.4358 123.086 14.3318V13.8809H121.132ZM135.724 4.71327H138.451C138.88 4.71327 140.641 4.94944 140.641 7.31113C140.641 9.73723 138.709 9.95193 137.893 9.95193H135.724V4.71327ZM135.724 18.4969V11.6695H138.322C139.911 11.6695 142.659 10.9395 142.659 7.41848C142.659 3.76859 140.426 2.99568 138.344 2.99568H133.749V18.4969H135.724ZM150.231 18.819C153.516 18.819 155.104 17.1229 155.104 12.8289V7.74053C155.104 4.64886 153.516 2.67363 150.231 2.67363C146.946 2.67363 145.357 4.64886 145.357 7.74053V12.8289C145.357 17.1229 146.946 18.819 150.231 18.819ZM150.231 17.1658C148.363 17.1658 147.375 16.307 147.375 12.9148V7.67612C147.375 4.43416 149.608 4.32681 150.231 4.32681C150.853 4.32681 153.086 4.43416 153.086 7.67612V12.9148C153.086 16.307 152.099 17.1658 150.231 17.1658ZM167.521 2.99568V16.2641H167.478L161.445 2.99568H158.654V18.4969H160.414V5.05679H160.457L166.576 18.4969H169.282V2.99568H167.521ZM172.437 13.8809C172.395 15.3623 172.395 18.8619 176.968 18.819C179.523 18.819 181.777 17.767 181.777 14.5035C181.777 9.58694 174.821 10.0807 174.821 6.66703C174.821 4.99238 176.023 4.39122 177.204 4.39122C179.072 4.39122 179.608 5.50766 179.587 7.20378H181.648C181.777 4.0477 180.188 2.67363 177.354 2.67363C174.756 2.67363 172.802 4.13358 172.802 6.88173C172.802 11.5407 179.759 11.1542 179.759 14.5894C179.759 16.4358 178.556 17.1014 176.989 17.1014C175.722 17.1014 174.391 16.4358 174.391 14.3318V13.8809H172.437ZM189.606 18.819C192.891 18.819 194.48 17.1229 194.48 12.8289V7.74053C194.48 4.64886 192.891 2.67363 189.606 2.67363C186.321 2.67363 184.732 4.64886 184.732 7.74053V12.8289C184.732 17.1229 186.321 18.819 189.606 18.819ZM189.606 17.1658C187.738 17.1658 186.751 16.307 186.751 12.9148V7.67612C186.751 4.43416 188.984 4.32681 189.606 4.32681C190.229 4.32681 192.462 4.43416 192.462 7.67612V12.9148C192.462 16.307 191.474 17.1658 189.606 17.1658ZM199.854 4.71327H202.839C204.363 4.71327 204.921 5.95852 204.921 7.07496C204.921 8.42756 204.234 9.65135 202.817 9.65135H199.854V4.71327ZM202.173 11.3689C202.839 11.3689 204.363 11.4548 204.513 13.3442C204.685 15.4053 204.556 17.4235 205.114 18.4969H207.176C206.875 17.5308 206.66 15.1047 206.639 14.4391C206.531 11.326 205.887 10.7248 204.105 10.4457V10.4028C205.93 10.0807 206.939 8.6852 206.939 6.86026C206.939 4.92797 205.973 2.99568 203.225 2.99568H197.879V18.4969H199.854V11.3689H202.173ZM217.968 18.4969V16.7794H211.827V11.4119H217.41V9.69429H211.827V4.71327H217.839V2.99568H209.852V18.4969H217.968ZM222.605 4.71327H225.203C227.264 4.71327 228.23 5.87265 228.23 9.00725V12.1419C228.23 15.7488 227.221 16.7794 224.473 16.7794H222.605V4.71327ZM220.63 18.4969H224.194C226.899 18.4969 228.467 17.8314 229.304 16.5002C229.948 15.4697 230.249 13.5589 230.249 10.2525C230.249 9.7587 230.184 6.66703 229.561 5.35737C228.789 3.70419 227.372 2.99568 225.396 2.99568H220.63V18.4969ZM240.64 11.2401H242.744C244.762 11.2401 246.287 11.6695 246.287 14.1386C246.287 15.2765 245.535 16.7794 243.431 16.7794H240.64V11.2401ZM240.64 4.71327H243.431C245.084 4.71327 245.814 5.7653 245.814 7.05349C245.814 8.55638 245.063 9.50106 243.517 9.52253H240.64V4.71327ZM243.646 18.4969C245.406 18.4969 248.305 18.1105 248.305 14.1386C248.305 12.013 247.339 10.6819 245.127 10.4243V10.3169C247.124 9.86605 247.79 8.57785 247.79 6.64556C247.79 6.34498 247.704 5.42178 247.167 4.58445C246.587 3.72566 245.857 2.99568 243.71 2.99568H238.665V18.4969H243.646ZM255.268 10.4887L252.241 2.99568H250.03L254.195 12.5927V18.4969H256.17V12.5927L260.399 2.99568H258.403L255.268 10.4887ZM265.653 2.99568V4.71327H269.732V18.4969H271.707V4.71327H275.787V2.99568H265.653ZM279.93 18.4969V11.4119H285.362V18.4969H287.337V2.99568H285.362V9.69429H279.93V2.99568H277.955V18.4969H279.93ZM299.067 18.4969V16.7794H292.927V11.4119H298.509V9.69429H292.927V4.71327H298.938V2.99568H290.951V18.4969H299.067Z" fill="black"/>
</svg>
