<svg width="368" height="263" viewBox="0 0 368 263" fill="none" xmlns="http://www.w3.org/2000/svg">
<path d="M135.166 86.8976C135.166 87.7585 135.06 88.5133 134.848 89.1618C134.636 89.7987 134.341 90.3529 133.963 90.8246C133.598 91.2964 133.162 91.6737 132.678 91.9568C132.183 92.2398 131.676 92.4638 131.145 92.6053V92.6761C131.794 92.794 132.395 93.0181 132.961 93.3601C133.527 93.6903 134.011 94.1148 134.435 94.6101C134.848 95.1172 135.19 95.7068 135.438 96.3908C135.697 97.0748 135.815 97.8295 135.815 98.6432C135.815 99.6221 135.65 100.518 135.32 101.332C134.978 102.146 134.459 102.853 133.751 103.455C133.044 104.056 132.147 104.516 131.074 104.858C129.989 105.188 128.716 105.365 127.23 105.365H122.159V80.5649H126.947C128.409 80.5649 129.659 80.7182 130.697 81.0131C131.735 81.3197 132.595 81.7442 133.268 82.2985C133.94 82.8409 134.423 83.5131 134.718 84.2915C135.013 85.0698 135.166 85.9307 135.166 86.8977V86.8976ZM132.006 87.0038C132.006 85.8481 131.605 84.9047 130.791 84.1617C129.966 83.4188 128.692 83.0532 126.947 83.0532H125.284V91.6029H126.911C128.586 91.6029 129.848 91.1902 130.709 90.3765C131.581 89.5628 132.006 88.4424 132.006 87.0037L132.006 87.0038ZM132.478 98.419C132.478 97.0864 132.041 96.025 131.169 95.2467C130.296 94.4683 129.034 94.0792 127.407 94.0792H125.284V102.77H127.23C129.069 102.77 130.414 102.405 131.239 101.674C132.065 100.943 132.477 99.8577 132.477 98.419H132.478ZM151.735 105.365H149.07V103.419H148.999C148.928 103.561 148.775 103.773 148.539 104.044C148.292 104.315 147.985 104.587 147.619 104.834C147.242 105.082 146.794 105.306 146.275 105.507C145.744 105.695 145.155 105.79 144.506 105.79C143.74 105.79 143.056 105.672 142.442 105.448C141.829 105.224 141.31 104.858 140.886 104.351C140.449 103.856 140.119 103.195 139.895 102.393C139.659 101.591 139.553 100.601 139.553 99.4332V88.1121H142.466V99.221C142.466 100.648 142.69 101.674 143.162 102.287C143.634 102.9 144.353 103.207 145.332 103.207C146.169 103.207 146.877 102.995 147.454 102.57C148.032 102.157 148.48 101.745 148.822 101.332V88.1121H151.735V105.365ZM165.592 105.365V94.256C165.592 92.7937 165.356 91.7441 164.86 91.1072C164.377 90.4822 163.622 90.1638 162.62 90.1638C161.759 90.1638 161.04 90.376 160.462 90.8124C159.884 91.2369 159.424 91.6615 159.094 92.0624V105.365H156.193V88.1118H158.846V90.0576H158.917C158.988 89.9161 159.141 89.7038 159.389 89.4208C159.624 89.1496 159.931 88.8901 160.32 88.6307C160.698 88.383 161.158 88.1589 161.676 87.9703C162.207 87.7816 162.809 87.6872 163.481 87.6872C164.247 87.6872 164.943 87.7934 165.556 88.0292C166.181 88.2533 166.712 88.6189 167.148 89.1142C167.573 89.6213 167.915 90.2817 168.151 91.0718C168.387 91.8737 168.504 92.8643 168.504 94.0436V105.365L165.592 105.365ZM172.066 96.9919C172.066 95.2348 172.29 93.7725 172.75 92.6051C173.198 91.4258 173.788 90.4824 174.507 89.763C175.226 89.0436 176.04 88.5365 176.948 88.2417C177.856 87.9351 178.776 87.7936 179.684 87.7936C180.238 87.7936 180.71 87.8289 181.123 87.9115C181.524 88.0058 181.866 88.1002 182.125 88.2181V79.963L185.038 79.6328V105.365H182.373V103.525H182.302C182.231 103.666 182.102 103.867 181.913 104.115C181.712 104.374 181.453 104.622 181.123 104.869C180.781 105.129 180.368 105.341 179.861 105.518C179.354 105.695 178.776 105.789 178.104 105.789C177.29 105.789 176.512 105.624 175.781 105.306C175.049 104.987 174.413 104.468 173.858 103.761C173.316 103.053 172.868 102.145 172.549 101.025C172.231 99.9163 172.066 98.5719 172.066 96.9918L172.066 96.9919ZM178.894 103.207C179.342 103.207 179.755 103.148 180.109 103.018C180.474 102.9 180.781 102.759 181.04 102.57C181.311 102.393 181.535 102.204 181.712 102.016C181.889 101.827 182.031 101.662 182.125 101.508V90.8832C181.866 90.7064 181.559 90.5648 181.205 90.4469C180.863 90.329 180.427 90.27 179.896 90.27C179.224 90.27 178.599 90.3762 178.009 90.612C177.42 90.8361 176.913 91.2134 176.488 91.7441C176.052 92.263 175.71 92.947 175.462 93.7961C175.215 94.6334 175.085 95.6594 175.085 96.8739C175.085 98.0768 175.191 99.0792 175.391 99.8811C175.592 100.683 175.875 101.332 176.229 101.815C176.594 102.31 176.995 102.664 177.455 102.876C177.903 103.101 178.387 103.207 178.894 103.207H178.894ZM200.557 93.9375C200.557 94.6805 200.533 95.3173 200.487 95.8598C200.428 96.3904 200.38 96.8621 200.345 97.2749H191.536C191.63 99.3033 192.066 100.801 192.845 101.768C193.623 102.723 194.743 103.207 196.206 103.207C196.713 103.207 197.161 103.148 197.574 103.018C197.975 102.9 198.329 102.759 198.635 102.594C198.93 102.428 199.178 102.252 199.39 102.086C199.59 101.921 199.744 101.792 199.838 101.697L200.911 103.737C200.793 103.867 200.616 104.032 200.369 104.268C200.133 104.492 199.814 104.716 199.402 104.94C199.001 105.176 198.494 105.377 197.892 105.542C197.291 105.707 196.595 105.789 195.769 105.789C194.696 105.789 193.718 105.612 192.845 105.247C191.972 104.893 191.229 104.327 190.616 103.572C190.003 102.829 189.543 101.862 189.201 100.707C188.859 99.5391 188.694 98.1476 188.694 96.5202C188.694 94.9872 188.871 93.6664 189.224 92.5461C189.566 91.4375 190.038 90.5177 190.64 89.7983C191.241 89.0789 191.937 88.5483 192.727 88.2063C193.517 87.8525 194.366 87.6874 195.274 87.6874C196.925 87.6874 198.222 88.2063 199.154 89.2441C200.086 90.2818 200.557 91.8503 200.557 93.9376L200.557 93.9375ZM195.097 90.0577C194.06 90.0577 193.234 90.4822 192.609 91.3431C191.996 92.204 191.63 93.454 191.536 95.0815H197.821C197.846 94.9635 197.869 94.7866 197.88 94.5626C197.892 94.3385 197.892 94.0909 197.892 93.8314C197.892 92.6285 197.657 91.6969 197.173 91.0365C196.701 90.3761 196.006 90.0577 195.097 90.0577L195.097 90.0577ZM211.867 91.6026C211.678 91.3785 211.336 91.0837 210.829 90.7181C210.322 90.3407 209.673 90.1638 208.848 90.1638C208.081 90.1638 207.504 90.3407 207.091 90.6945C206.69 91.0601 206.478 91.4846 206.478 91.9917C206.478 92.6403 206.666 93.171 207.044 93.5956C207.409 94.0083 207.975 94.4565 208.742 94.9399L209.827 95.5885C210.994 96.2843 211.914 97.0273 212.586 97.8292C213.258 98.6311 213.6 99.6689 213.6 100.942C213.6 102.299 213.117 103.454 212.174 104.386C211.23 105.317 209.874 105.789 208.093 105.789C207.409 105.789 206.796 105.718 206.265 105.577C205.735 105.424 205.275 105.258 204.885 105.07C204.484 104.881 204.154 104.669 203.895 104.445C203.635 104.209 203.411 104.008 203.246 103.808L204.65 101.508C204.791 101.662 204.968 101.827 205.168 102.015C205.381 102.204 205.617 102.393 205.911 102.57C206.194 102.758 206.513 102.9 206.878 103.018C207.232 103.148 207.657 103.206 208.128 103.206C208.989 103.206 209.662 103.006 210.11 102.629C210.57 102.239 210.794 101.78 210.794 101.225C210.794 100.813 210.735 100.471 210.629 100.164C210.522 99.8691 210.357 99.5979 210.145 99.362C209.933 99.1144 209.673 98.8903 209.355 98.6781C209.048 98.4658 208.683 98.2181 208.282 97.9587L207.197 97.2747C206.124 96.5789 205.275 95.8478 204.673 95.0813C204.06 94.3147 203.753 93.3359 203.753 92.1331C203.753 91.4845 203.883 90.8948 204.131 90.3523C204.378 89.8217 204.732 89.35 205.192 88.9608C205.64 88.5598 206.171 88.2532 206.784 88.0292C207.397 87.7933 208.046 87.6872 208.742 87.6872C209.414 87.6872 209.992 87.7461 210.463 87.8759C210.947 88.0174 211.36 88.1825 211.713 88.383C212.055 88.5834 212.338 88.7957 212.574 88.9962C212.798 89.1967 212.987 89.3735 213.129 89.5151L211.867 91.6026ZM226.065 105.365V94.2557C226.065 92.8406 225.853 91.8264 225.452 91.2015C225.04 90.5764 224.391 90.2698 223.471 90.2698C222.999 90.2698 222.575 90.3288 222.197 90.4467C221.832 90.5646 221.502 90.7179 221.207 90.8949C220.924 91.0717 220.676 91.2722 220.452 91.4845C220.24 91.7086 220.063 91.8972 219.921 92.0624V105.365H217.009V88.1117H219.662V90.0575H219.744C219.862 89.8571 220.039 89.6212 220.275 89.35C220.511 89.0787 220.818 88.8193 221.171 88.5598C221.537 88.3122 221.95 88.0999 222.433 87.9348C222.917 87.7697 223.447 87.6872 224.049 87.6872C226.018 87.6872 227.398 88.4537 228.212 89.975C228.377 89.7391 228.613 89.4797 228.896 89.2084C229.191 88.9372 229.521 88.6778 229.91 88.4537C230.287 88.2296 230.724 88.0409 231.195 87.8994C231.679 87.7579 232.209 87.6872 232.775 87.6872C236.278 87.6872 238.023 89.7156 238.023 93.7958V105.364H235.111V94.2555C235.111 92.8404 234.863 91.8262 234.356 91.2013C233.86 90.5762 233.118 90.2696 232.127 90.2696C231.313 90.2696 230.641 90.4701 230.099 90.8593C229.568 91.2602 229.132 91.6376 228.825 91.9914C228.872 92.2508 228.907 92.5339 228.931 92.8405C228.955 93.1353 228.966 93.4537 228.966 93.7957V105.364L226.065 105.365ZM245.276 105.364H242.375V88.1116H245.276V105.364ZM243.837 83.9484C243.248 83.9484 242.764 83.7597 242.41 83.3706C242.045 82.9932 241.868 82.4861 241.868 81.8611C241.868 81.2596 242.045 80.7761 242.41 80.387C242.764 80.0096 243.248 79.8091 243.837 79.8091C244.415 79.8091 244.887 80.0096 245.252 80.387C245.606 80.7762 245.783 81.2596 245.783 81.8611C245.783 82.4861 245.606 82.9932 245.252 83.3706C244.887 83.7597 244.415 83.9484 243.837 83.9484ZM259.144 105.364V94.2555C259.144 92.7932 258.908 91.7436 258.413 91.1067C257.918 90.4817 257.175 90.1633 256.161 90.1633C255.3 90.1633 254.592 90.3755 254.014 90.8119C253.436 91.2364 252.977 91.661 252.646 92.0619V105.364H249.734V88.1113H252.399V90.0571H252.469C252.54 89.9156 252.693 89.7033 252.929 89.4203C253.177 89.149 253.484 88.8896 253.873 88.6302C254.25 88.3825 254.71 88.1584 255.229 87.9698C255.76 87.7811 256.361 87.6867 257.033 87.6867C257.8 87.6867 258.495 87.7929 259.109 88.0287C259.734 88.2528 260.264 88.6183 260.689 89.1137C261.125 89.6208 261.455 90.2812 261.703 91.0713C261.939 91.8732 262.057 92.8638 262.057 94.0431V105.364L259.144 105.364ZM269.321 105.364H266.408V88.1114H269.321V105.364ZM267.882 83.9483C267.281 83.9483 266.797 83.7596 266.444 83.3704C266.078 82.993 265.901 82.4859 265.901 81.8609C265.901 81.2595 266.078 80.776 266.444 80.3868C266.797 80.0095 267.281 79.809 267.882 79.809C268.448 79.809 268.92 80.0095 269.286 80.3868C269.64 80.776 269.816 81.2595 269.816 81.8609C269.816 82.4859 269.64 82.993 269.286 83.3704C268.92 83.7596 268.448 83.9483 267.882 83.9483ZM281.208 91.602C281.02 91.3779 280.666 91.0831 280.159 90.7175C279.664 90.3401 279.003 90.1632 278.189 90.1632C277.423 90.1632 276.833 90.3401 276.432 90.6939C276.02 91.0595 275.819 91.484 275.819 91.9911C275.819 92.6397 276.008 93.1704 276.373 93.595C276.751 94.0077 277.317 94.4558 278.083 94.9393L279.156 95.5879C280.336 96.2837 281.256 97.0266 281.928 97.8286C282.6 98.6305 282.93 99.6682 282.93 100.942C282.93 102.298 282.458 103.454 281.515 104.385C280.56 105.317 279.204 105.789 277.435 105.789C276.739 105.789 276.126 105.718 275.607 105.576C275.076 105.423 274.616 105.258 274.215 105.069C273.826 104.88 273.496 104.668 273.236 104.444C272.965 104.208 272.753 104.008 272.588 103.807L273.991 101.508C274.133 101.661 274.309 101.826 274.51 102.015C274.71 102.203 274.958 102.392 275.241 102.569C275.524 102.758 275.854 102.899 276.208 103.017C276.574 103.147 276.986 103.206 277.47 103.206C278.331 103.206 278.991 103.005 279.439 102.628C279.899 102.239 280.123 101.779 280.123 101.225C280.123 100.812 280.076 100.47 279.97 100.163C279.864 99.8685 279.699 99.5973 279.486 99.3614C279.262 99.1138 279.003 98.8897 278.685 98.6775C278.378 98.4652 278.024 98.2175 277.611 97.9581L276.538 97.2741C275.453 96.5783 274.616 95.8472 274.003 95.0807C273.39 94.3141 273.083 93.3353 273.083 92.1325C273.083 91.4839 273.213 90.8942 273.46 90.3517C273.72 89.8211 274.074 89.3494 274.522 88.9602C274.982 88.5592 275.512 88.2526 276.126 88.0286C276.739 87.7927 277.387 87.6866 278.083 87.6866C278.755 87.6866 279.321 87.7455 279.805 87.8753C280.288 88.0168 280.701 88.1819 281.043 88.3824C281.397 88.5828 281.68 88.7951 281.904 88.9956C282.14 89.1961 282.317 89.3729 282.458 89.5145L281.208 91.602ZM293.709 90.4815H289.935V100.034C289.935 101.26 290.088 102.098 290.407 102.534C290.713 102.982 291.244 103.206 291.987 103.206C292.412 103.206 292.789 103.147 293.096 103.017C293.402 102.899 293.638 102.793 293.78 102.699L294.169 105.034C294.062 105.128 293.768 105.282 293.32 105.482C292.86 105.683 292.246 105.789 291.48 105.789C289.994 105.789 288.885 105.376 288.142 104.55C287.399 103.725 287.022 102.357 287.022 100.435V90.4814H284.947V88.5474L287.022 88.1111L287.352 83.2995H289.935V88.1111H294.074L293.709 90.4815ZM307.825 93.9368C307.825 94.6797 307.801 95.3166 307.754 95.859C307.707 96.3897 307.66 96.8614 307.613 97.2742H298.803C298.909 99.3026 299.346 100.8 300.124 101.767C300.902 102.723 302.023 103.206 303.473 103.206C303.98 103.206 304.44 103.147 304.841 103.017C305.254 102.899 305.608 102.758 305.903 102.593C306.209 102.428 306.457 102.251 306.657 102.086C306.858 101.921 307.011 101.791 307.105 101.697L308.19 103.737C308.072 103.866 307.884 104.031 307.648 104.267C307.412 104.491 307.082 104.715 306.681 104.94C306.268 105.175 305.773 105.376 305.171 105.541C304.57 105.706 303.862 105.789 303.049 105.789C301.976 105.789 300.997 105.612 300.124 105.246C299.251 104.892 298.508 104.326 297.895 103.572C297.282 102.829 296.81 101.862 296.48 100.706C296.138 99.5384 295.973 98.1468 295.973 96.5195C295.973 94.9864 296.15 93.6656 296.492 92.5453C296.846 91.4368 297.317 90.5169 297.907 89.7976C298.508 89.0782 299.204 88.5476 299.994 88.2056C300.784 87.8518 301.634 87.6867 302.542 87.6867C304.193 87.6867 305.49 88.2056 306.422 89.2433C307.365 90.2811 307.825 91.8495 307.825 93.9369L307.825 93.9368ZM302.365 90.0569C301.339 90.0569 300.513 90.4815 299.888 91.3424C299.263 92.2032 298.909 93.4533 298.803 95.0807H305.101C305.125 94.9628 305.136 94.7859 305.148 94.5618C305.16 94.3378 305.172 94.0901 305.172 93.8307C305.172 92.6278 304.924 91.6962 304.452 91.0358C303.969 90.3754 303.273 90.057 302.365 90.057L302.365 90.0569ZM319.288 90.6584C319.217 90.6112 319.064 90.5523 318.816 90.4815C318.58 90.4108 318.262 90.3754 317.849 90.3754C316.941 90.3754 316.234 90.623 315.715 91.1065C315.196 91.6018 314.83 92.1325 314.618 92.7104V105.364H311.705V88.1113H314.37V90.4463H314.441C314.559 90.1161 314.712 89.7859 314.901 89.4557C315.101 89.1373 315.337 88.8425 315.62 88.5948C315.915 88.3471 316.257 88.1467 316.646 88.0052C317.047 87.8637 317.519 87.7929 318.061 87.7929C318.474 87.7929 318.804 87.8283 319.052 87.899C319.3 87.9698 319.5 88.0288 319.642 88.0759L319.288 90.6584ZM325.066 105.364H322.165V88.1116H325.066V105.364ZM323.639 83.9484C323.038 83.9484 322.554 83.7597 322.201 83.3705C321.835 82.9932 321.658 82.4861 321.658 81.861C321.658 81.2596 321.835 80.7761 322.201 80.3869C322.554 80.0096 323.038 79.8091 323.639 79.8091C324.205 79.8091 324.677 80.0096 325.031 80.3869C325.397 80.7761 325.573 81.2596 325.573 81.861C325.573 82.4861 325.397 82.9932 325.031 83.3705C324.677 83.7597 324.205 83.9484 323.639 83.9484ZM341.6 105.364H338.934V103.419H338.864C338.793 103.56 338.64 103.772 338.404 104.044C338.156 104.315 337.861 104.586 337.484 104.834C337.118 105.081 336.658 105.305 336.14 105.506C335.609 105.695 335.019 105.789 334.371 105.789C333.616 105.789 332.92 105.671 332.307 105.447C331.705 105.223 331.175 104.857 330.75 104.35C330.314 103.855 329.984 103.194 329.76 102.393C329.536 101.591 329.418 100.6 329.418 99.4326V88.1114H332.33V99.2203C332.33 100.647 332.566 101.673 333.026 102.286C333.498 102.9 334.217 103.206 335.208 103.206C336.045 103.206 336.753 102.994 337.319 102.569C337.897 102.157 338.357 101.744 338.687 101.331V88.1114H341.6L341.6 105.364ZM355.103 105.364V94.2553C355.103 92.8402 354.902 91.826 354.489 91.201C354.088 90.576 353.428 90.2694 352.52 90.2694C352.036 90.2694 351.612 90.3283 351.246 90.4463C350.869 90.5642 350.539 90.7175 350.256 90.8944C349.973 91.0713 349.713 91.2718 349.501 91.484C349.289 91.7081 349.1 91.8968 348.959 92.0619V105.364H346.057V88.1113H348.711V90.0571H348.781C348.9 89.8566 349.088 89.6208 349.324 89.3495C349.56 89.0783 349.855 88.8188 350.22 88.5594C350.574 88.3117 350.999 88.0995 351.482 87.9344C351.954 87.7693 352.496 87.6867 353.098 87.6867C355.055 87.6867 356.447 88.4533 357.261 89.9745C357.426 89.7387 357.661 89.4792 357.945 89.208C358.227 88.9368 358.57 88.6773 358.947 88.4532C359.336 88.2292 359.761 88.0405 360.244 87.899C360.728 87.7575 361.246 87.6867 361.824 87.6867C365.315 87.6867 367.072 89.7151 367.072 93.7953V105.364H364.159V94.2551C364.159 92.8399 363.912 91.8258 363.405 91.2008C362.898 90.5758 362.155 90.2692 361.176 90.2692C360.362 90.2692 359.69 90.4697 359.147 90.8588C358.605 91.2598 358.18 91.6371 357.874 91.9909C357.921 92.2504 357.956 92.5334 357.98 92.84C358.004 93.1348 358.015 93.4532 358.015 93.7952V105.364L355.103 105.364ZM128.809 126.709H125.283V141.592H122.382V126.709H120.295V124.775L122.382 124.374V120.931C122.382 119.999 122.512 119.197 122.771 118.525C123.043 117.853 123.385 117.298 123.821 116.862C124.246 116.437 124.753 116.119 125.319 115.93C125.897 115.742 126.51 115.647 127.158 115.647C127.783 115.647 128.302 115.73 128.739 115.895C129.175 116.072 129.458 116.202 129.6 116.296L128.986 118.702C128.845 118.607 128.644 118.501 128.373 118.395C128.114 118.289 127.795 118.23 127.406 118.23C126.71 118.23 126.191 118.454 125.826 118.879C125.472 119.315 125.283 120.105 125.283 121.249V124.339H129.175L128.809 126.709ZM143.751 141.591H141.097V139.646H141.027C140.956 139.787 140.791 139.999 140.555 140.271C140.319 140.542 140.013 140.813 139.647 141.061C139.27 141.308 138.821 141.532 138.291 141.733C137.772 141.922 137.182 142.016 136.534 142.016C135.767 142.016 135.083 141.898 134.47 141.674C133.857 141.45 133.338 141.084 132.901 140.577C132.477 140.082 132.147 139.421 131.923 138.62C131.687 137.818 131.581 136.827 131.581 135.66V124.338H134.482V135.447C134.482 136.874 134.718 137.9 135.189 138.513C135.649 139.127 136.38 139.433 137.359 139.433C138.196 139.433 138.904 139.221 139.482 138.796C140.048 138.384 140.508 137.971 140.85 137.558V124.338H143.751L143.751 141.591ZM136.604 119.385C136.604 119.928 136.439 120.376 136.097 120.718C135.767 121.048 135.354 121.213 134.883 121.213C134.399 121.213 133.998 121.048 133.656 120.718C133.326 120.376 133.161 119.928 133.161 119.385C133.161 118.831 133.326 118.383 133.656 118.053C133.998 117.723 134.399 117.546 134.883 117.546C135.354 117.546 135.767 117.723 136.097 118.053C136.439 118.383 136.604 118.831 136.604 119.385ZM142.135 119.385C142.135 119.928 141.97 120.376 141.64 120.718C141.298 121.048 140.897 121.213 140.413 121.213C139.93 121.213 139.529 121.048 139.187 120.718C138.857 120.376 138.692 119.928 138.692 119.385C138.692 118.831 138.857 118.383 139.187 118.053C139.529 117.723 139.93 117.546 140.413 117.546C140.897 117.546 141.298 117.723 141.64 118.053C141.97 118.383 142.135 118.831 142.135 119.385ZM155.791 126.886C155.72 126.839 155.567 126.78 155.319 126.709C155.084 126.638 154.765 126.603 154.352 126.603C153.444 126.603 152.725 126.85 152.218 127.334C151.699 127.829 151.333 128.36 151.121 128.938V141.591H148.208V124.339H150.862V126.674H150.944C151.062 126.343 151.216 126.013 151.404 125.683C151.593 125.365 151.841 125.07 152.124 124.822C152.418 124.575 152.749 124.374 153.15 124.233C153.55 124.091 154.01 124.02 154.565 124.02C154.977 124.02 155.308 124.056 155.555 124.126C155.815 124.197 156.003 124.256 156.145 124.303L155.791 126.886ZM179.07 123.124C179.07 123.985 178.964 124.74 178.752 125.388C178.528 126.025 178.233 126.579 177.867 127.051C177.49 127.523 177.066 127.9 176.57 128.183C176.087 128.466 175.568 128.69 175.049 128.832V128.903C175.698 129.02 176.299 129.245 176.865 129.587C177.419 129.917 177.915 130.341 178.339 130.837C178.752 131.344 179.094 131.933 179.342 132.617C179.589 133.301 179.719 134.056 179.719 134.87C179.719 135.848 179.554 136.745 179.212 137.558C178.882 138.372 178.363 139.08 177.655 139.681C176.948 140.283 176.051 140.742 174.978 141.084C173.893 141.415 172.62 141.592 171.134 141.592H166.063V116.791H170.839C172.301 116.791 173.551 116.945 174.601 117.239C175.639 117.546 176.499 117.971 177.16 118.525C177.832 119.067 178.316 119.74 178.622 120.518C178.917 121.296 179.07 122.157 179.07 123.124V123.124ZM175.91 123.23C175.91 122.075 175.497 121.131 174.683 120.388C173.87 119.645 172.596 119.28 170.839 119.28H169.188V127.829H170.804C172.478 127.829 173.752 127.417 174.613 126.603C175.474 125.789 175.91 124.669 175.91 123.23L175.91 123.23ZM176.37 134.645C176.37 133.313 175.933 132.251 175.061 131.473C174.188 130.695 172.938 130.306 171.311 130.306H169.188V138.997H171.134C172.973 138.997 174.306 138.631 175.131 137.9C175.957 137.169 176.37 136.084 176.37 134.645H176.37ZM186.465 141.591H183.563V124.339H186.465V141.591ZM185.038 120.175C184.436 120.175 183.953 119.987 183.599 119.598C183.233 119.22 183.056 118.713 183.056 118.088C183.056 117.487 183.233 117.003 183.599 116.614C183.953 116.237 184.436 116.036 185.038 116.036C185.604 116.036 186.075 116.237 186.429 116.614C186.795 117.003 186.972 117.487 186.972 118.088C186.972 118.713 186.795 119.22 186.429 119.598C186.075 119.987 185.604 120.175 185.038 120.175ZM193.8 137.558C193.8 138.277 193.894 138.785 194.106 139.068C194.307 139.362 194.66 139.504 195.167 139.504C195.427 139.504 195.651 139.48 195.828 139.433C196.005 139.386 196.146 139.339 196.241 139.28L196.488 141.438C196.347 141.509 196.087 141.603 195.698 141.733C195.321 141.851 194.802 141.91 194.153 141.91C193.174 141.91 192.384 141.603 191.783 141.013C191.193 140.412 190.887 139.351 190.887 137.817V116.189L193.799 115.859L193.8 137.558ZM198.328 133.218C198.328 131.461 198.552 129.999 199.012 128.831C199.46 127.652 200.05 126.709 200.769 125.989C201.488 125.27 202.302 124.763 203.21 124.468C204.118 124.161 205.026 124.02 205.946 124.02C206.489 124.02 206.972 124.055 207.373 124.138C207.786 124.232 208.116 124.326 208.387 124.444V116.189L211.3 115.859V141.591H208.635V139.751H208.564C208.494 139.893 208.364 140.093 208.175 140.341C207.975 140.6 207.715 140.848 207.373 141.096C207.043 141.355 206.618 141.567 206.123 141.744C205.616 141.921 205.026 142.015 204.354 142.015C203.552 142.015 202.774 141.85 202.043 141.532C201.312 141.213 200.675 140.695 200.12 139.987C199.566 139.279 199.13 138.371 198.811 137.251C198.493 136.143 198.328 134.798 198.328 133.218L198.328 133.218ZM205.156 139.433C205.604 139.433 206.017 139.374 206.371 139.244C206.736 139.126 207.043 138.985 207.302 138.796C207.573 138.619 207.798 138.43 207.974 138.242C208.151 138.053 208.293 137.888 208.387 137.735V127.109C208.116 126.933 207.821 126.791 207.467 126.673C207.125 126.555 206.689 126.496 206.158 126.496C205.486 126.496 204.861 126.602 204.271 126.838C203.682 127.062 203.175 127.44 202.75 127.97C202.314 128.489 201.972 129.173 201.724 130.022C201.465 130.86 201.347 131.886 201.347 133.1C201.347 134.303 201.441 135.305 201.653 136.107C201.854 136.909 202.137 137.558 202.491 138.041C202.856 138.537 203.257 138.89 203.717 139.103C204.165 139.327 204.649 139.433 205.156 139.433ZM227.822 141.591H225.157V139.645H225.086C225.015 139.787 224.862 139.999 224.626 140.27C224.39 140.541 224.072 140.813 223.706 141.06C223.341 141.308 222.892 141.532 222.362 141.732C221.831 141.921 221.241 142.016 220.605 142.016C219.826 142.016 219.142 141.898 218.529 141.674C217.928 141.449 217.397 141.084 216.972 140.577C216.536 140.081 216.206 139.421 215.982 138.619C215.758 137.817 215.64 136.827 215.64 135.659V124.338H218.553V135.447C218.553 136.874 218.788 137.9 219.248 138.513C219.72 139.126 220.439 139.433 221.43 139.433C222.267 139.433 222.975 139.221 223.541 138.796C224.119 138.383 224.579 137.971 224.909 137.558V124.338H227.822V141.591ZM241.69 141.591V130.482C241.69 129.02 241.443 127.97 240.947 127.333C240.464 126.708 239.709 126.39 238.707 126.39C237.846 126.39 237.126 126.602 236.549 127.038C235.971 127.463 235.523 127.887 235.192 128.288V141.59H232.28V124.338H234.933V126.284H235.004C235.074 126.142 235.228 125.93 235.475 125.647C235.711 125.375 236.018 125.116 236.407 124.857C236.784 124.609 237.244 124.385 237.775 124.196C238.294 124.007 238.895 123.913 239.567 123.913C240.334 123.913 241.03 124.019 241.655 124.255C242.28 124.479 242.799 124.845 243.235 125.34C243.66 125.847 244.002 126.508 244.237 127.298C244.473 128.1 244.591 129.09 244.591 130.27V141.591L241.69 141.591ZM261.302 126.602H259.144C259.698 127.51 259.981 128.548 259.981 129.692C259.981 130.6 259.828 131.425 259.521 132.156C259.226 132.888 258.802 133.501 258.271 134.008C257.729 134.503 257.092 134.892 256.361 135.152C255.629 135.423 254.851 135.553 254.014 135.553H253.542C253.401 135.553 253.247 135.529 253.082 135.506C252.787 135.635 252.493 135.824 252.174 136.083C251.868 136.355 251.714 136.697 251.714 137.133C251.714 137.487 251.844 137.782 252.127 138.006C252.398 138.242 252.846 138.348 253.471 138.348H255.665C256.479 138.348 257.233 138.43 257.929 138.607C258.625 138.772 259.226 139.043 259.745 139.409C260.252 139.786 260.653 140.258 260.948 140.836C261.231 141.402 261.373 142.098 261.373 142.911C261.373 143.843 261.172 144.692 260.783 145.459C260.382 146.225 259.828 146.886 259.108 147.44C258.389 147.994 257.516 148.419 256.49 148.737C255.464 149.044 254.309 149.197 253.035 149.197C251.195 149.197 249.792 148.796 248.837 147.994C247.882 147.192 247.398 146.037 247.398 144.527C247.398 143.879 247.516 143.324 247.74 142.864C247.964 142.393 248.235 141.992 248.554 141.638C248.861 141.284 249.179 141.013 249.497 140.812C249.828 140.612 250.087 140.447 250.276 140.329V140.258C249.533 139.704 249.167 138.902 249.167 137.852C249.167 137.392 249.25 136.992 249.426 136.661C249.615 136.331 249.816 136.048 250.04 135.836C250.264 135.624 250.5 135.447 250.724 135.317C250.948 135.187 251.125 135.093 251.243 135.046V134.975C250.358 134.562 249.639 133.925 249.108 133.053C248.566 132.18 248.294 131.06 248.294 129.692C248.294 128.736 248.46 127.887 248.766 127.156C249.073 126.425 249.497 125.824 250.016 125.34C250.547 124.868 251.172 124.503 251.868 124.267C252.575 124.031 253.342 123.913 254.155 123.913C254.969 123.913 255.736 124.055 256.455 124.338H261.703L261.302 126.602ZM253.294 141.048C252.787 141.048 252.351 141.013 251.962 140.93C251.75 141.06 251.537 141.202 251.337 141.367C251.125 141.532 250.948 141.744 250.771 141.98C250.606 142.216 250.476 142.499 250.358 142.817C250.252 143.148 250.205 143.525 250.205 143.949C250.205 145.801 251.219 146.721 253.259 146.721C255.004 146.721 256.302 146.379 257.139 145.695C257.976 145.011 258.389 144.232 258.389 143.348C258.389 142.511 258.13 141.909 257.599 141.567C257.08 141.225 256.372 141.048 255.488 141.048L253.294 141.048ZM257.139 129.692C257.139 128.442 256.844 127.557 256.255 127.039C255.665 126.508 254.981 126.248 254.191 126.248C253.353 126.248 252.634 126.508 252.033 127.039C251.431 127.557 251.136 128.442 251.136 129.692C251.136 130.942 251.431 131.826 252.033 132.345C252.634 132.876 253.33 133.135 254.12 133.135C254.957 133.135 255.665 132.876 256.255 132.345C256.844 131.826 257.139 130.942 257.139 129.692V129.692ZM133.621 177.817H130.968V175.871H130.897C130.826 176.013 130.661 176.225 130.425 176.496C130.189 176.768 129.883 177.039 129.505 177.287C129.14 177.534 128.692 177.758 128.161 177.959C127.642 178.147 127.052 178.242 126.404 178.242C125.637 178.242 124.941 178.124 124.34 177.9C123.727 177.676 123.208 177.31 122.772 176.803C122.347 176.308 122.017 175.647 121.781 174.845C121.557 174.044 121.439 173.053 121.439 171.885V160.564H124.352V171.673C124.352 173.1 124.588 174.126 125.059 174.739C125.519 175.353 126.25 175.659 127.229 175.659C128.067 175.659 128.774 175.447 129.352 175.022C129.93 174.61 130.378 174.197 130.708 173.784V160.564H133.621L133.621 177.817ZM147.489 177.817V166.708C147.489 165.246 147.242 164.196 146.758 163.559C146.263 162.934 145.52 162.616 144.506 162.616C143.645 162.616 142.926 162.828 142.36 163.265C141.782 163.689 141.322 164.114 140.992 164.515V177.817H138.079V160.564H140.732V162.51H140.803C140.886 162.368 141.039 162.156 141.275 161.873C141.511 161.602 141.829 161.342 142.206 161.083C142.595 160.835 143.044 160.611 143.574 160.423C144.105 160.234 144.706 160.139 145.379 160.139C146.133 160.139 146.829 160.246 147.454 160.481C148.079 160.706 148.61 161.071 149.034 161.566C149.471 162.074 149.801 162.734 150.049 163.524C150.284 164.326 150.402 165.317 150.402 166.496V177.817L147.489 177.817ZM153.964 169.444C153.964 167.687 154.188 166.225 154.636 165.057C155.096 163.878 155.686 162.935 156.405 162.215C157.124 161.496 157.938 160.989 158.846 160.694C159.754 160.387 160.662 160.246 161.57 160.246C162.124 160.246 162.608 160.281 163.009 160.364C163.422 160.458 163.752 160.552 164.023 160.67V152.415L166.924 152.085V177.817H164.271V175.977H164.2C164.129 176.119 164 176.319 163.799 176.567C163.61 176.826 163.351 177.074 163.009 177.322C162.679 177.581 162.254 177.793 161.759 177.97C161.252 178.147 160.662 178.241 159.99 178.241C159.176 178.241 158.41 178.076 157.679 177.758C156.947 177.439 156.299 176.921 155.756 176.213C155.202 175.505 154.766 174.597 154.447 173.477C154.117 172.369 153.964 171.024 153.964 169.444V169.444ZM160.78 175.659C161.24 175.659 161.641 175.6 162.006 175.47C162.36 175.352 162.679 175.211 162.938 175.022C163.198 174.845 163.422 174.657 163.599 174.468C163.787 174.279 163.917 174.114 164.023 173.961V163.335C163.752 163.159 163.445 163.017 163.103 162.899C162.749 162.781 162.313 162.722 161.794 162.722C161.122 162.722 160.485 162.828 159.907 163.064C159.318 163.288 158.811 163.666 158.374 164.196C157.95 164.715 157.608 165.399 157.348 166.248C157.101 167.074 156.971 168.112 156.971 169.326C156.971 170.529 157.077 171.531 157.278 172.333C157.49 173.135 157.761 173.784 158.127 174.267C158.48 174.763 158.893 175.116 159.353 175.329C159.801 175.553 160.285 175.659 160.78 175.659V175.659ZM179.613 177.817V153.017H191.783L191.571 155.505H182.738V164.656H190.887V167.144H182.738V177.817L179.613 177.817ZM193.977 169.185C193.977 167.604 194.166 166.248 194.531 165.092C194.909 163.937 195.404 163.005 196.041 162.274C196.677 161.543 197.409 161 198.234 160.658C199.06 160.305 199.944 160.139 200.876 160.139C201.831 160.139 202.715 160.305 203.541 160.658C204.343 161 205.05 161.543 205.652 162.274C206.253 163.005 206.725 163.937 207.079 165.092C207.421 166.248 207.598 167.604 207.598 169.185C207.598 170.788 207.421 172.168 207.055 173.324C206.701 174.468 206.194 175.411 205.569 176.142C204.932 176.874 204.189 177.404 203.352 177.734C202.515 178.076 201.63 178.242 200.699 178.242C199.744 178.242 198.859 178.076 198.034 177.734C197.22 177.404 196.512 176.874 195.923 176.142C195.321 175.411 194.85 174.48 194.496 173.336C194.154 172.204 193.977 170.812 193.977 169.185ZM204.579 169.185C204.579 166.885 204.248 165.222 203.576 164.173C202.904 163.135 201.961 162.616 200.77 162.616C199.567 162.616 198.647 163.135 197.986 164.173C197.326 165.222 196.996 166.885 196.996 169.185C196.996 171.484 197.338 173.135 197.998 174.149C198.67 175.152 199.614 175.659 200.805 175.659C202.008 175.659 202.928 175.152 203.588 174.149C204.248 173.135 204.579 171.484 204.579 169.185ZM218.836 163.111C218.766 163.064 218.612 163.005 218.376 162.935C218.129 162.864 217.81 162.828 217.398 162.828C216.49 162.828 215.782 163.076 215.263 163.56C214.744 164.055 214.379 164.586 214.166 165.163V177.817H211.253V160.564H213.919V162.899H213.989C214.107 162.569 214.26 162.239 214.461 161.909C214.65 161.59 214.886 161.295 215.169 161.048C215.464 160.8 215.805 160.6 216.195 160.458C216.596 160.317 217.067 160.246 217.622 160.246C218.022 160.246 218.353 160.281 218.612 160.352C218.86 160.423 219.048 160.482 219.202 160.529L218.836 163.111ZM229.002 164.055C228.813 163.831 228.471 163.536 227.964 163.171C227.457 162.793 226.808 162.616 225.983 162.616C225.216 162.616 224.638 162.793 224.226 163.147C223.825 163.513 223.624 163.937 223.624 164.444C223.624 165.093 223.801 165.624 224.178 166.048C224.544 166.461 225.11 166.909 225.888 167.392L226.961 168.041C228.129 168.737 229.061 169.48 229.721 170.282C230.393 171.084 230.735 172.121 230.735 173.395C230.735 174.751 230.252 175.907 229.308 176.838C228.365 177.77 227.009 178.242 225.228 178.242C224.544 178.242 223.931 178.171 223.4 178.029C222.881 177.876 222.409 177.711 222.02 177.522C221.619 177.334 221.289 177.121 221.03 176.897C220.77 176.661 220.546 176.461 220.381 176.26L221.784 173.961C221.926 174.114 222.103 174.279 222.303 174.468C222.515 174.657 222.751 174.845 223.046 175.022C223.329 175.211 223.659 175.352 224.013 175.47C224.379 175.6 224.791 175.659 225.275 175.659C226.136 175.659 226.796 175.459 227.244 175.081C227.704 174.692 227.928 174.232 227.928 173.678C227.928 173.265 227.869 172.923 227.763 172.616C227.657 172.322 227.492 172.05 227.28 171.815C227.067 171.567 226.808 171.343 226.49 171.131C226.183 170.918 225.817 170.671 225.416 170.411L224.331 169.727C223.258 169.031 222.409 168.3 221.808 167.534C221.195 166.767 220.888 165.788 220.888 164.586C220.888 163.937 221.018 163.347 221.265 162.805C221.513 162.274 221.867 161.802 222.327 161.413C222.775 161.012 223.317 160.706 223.919 160.482C224.532 160.246 225.181 160.14 225.888 160.14C226.549 160.14 227.126 160.199 227.61 160.328C228.082 160.47 228.494 160.635 228.848 160.835C229.19 161.036 229.485 161.248 229.709 161.449C229.933 161.649 230.122 161.826 230.263 161.968L229.002 164.055ZM243.742 163.902C243.66 163.831 243.554 163.725 243.4 163.583C243.235 163.442 243.047 163.3 242.799 163.147C242.563 163.005 242.28 162.887 241.938 162.769C241.608 162.663 241.219 162.616 240.794 162.616C240.169 162.616 239.591 162.734 239.049 162.958C238.506 163.182 238.046 163.548 237.645 164.055C237.256 164.55 236.938 165.211 236.714 166.013C236.49 166.814 236.372 167.781 236.372 168.937C236.372 170.211 236.478 171.272 236.678 172.133C236.879 172.994 237.162 173.69 237.516 174.197C237.881 174.716 238.318 175.081 238.837 175.317C239.344 175.541 239.91 175.659 240.535 175.659C241.419 175.659 242.103 175.494 242.563 175.187C243.035 174.881 243.365 174.621 243.554 174.433L244.745 176.449C244.627 176.591 244.45 176.756 244.214 176.968C243.99 177.169 243.695 177.369 243.341 177.558C242.988 177.746 242.539 177.912 242.032 178.041C241.514 178.171 240.924 178.242 240.252 178.242C239.296 178.242 238.4 178.088 237.551 177.77C236.714 177.463 235.983 176.945 235.369 176.225C234.744 175.506 234.249 174.574 233.895 173.43C233.53 172.275 233.353 170.848 233.353 169.149C233.353 167.498 233.565 166.095 234.001 164.951C234.438 163.795 234.992 162.876 235.688 162.168C236.384 161.46 237.15 160.942 238.011 160.623C238.86 160.293 239.709 160.14 240.57 160.14C241.219 160.14 241.785 160.199 242.28 160.317C242.775 160.434 243.188 160.588 243.542 160.765C243.884 160.942 244.179 161.13 244.403 161.343C244.627 161.543 244.816 161.72 244.957 161.861L243.742 163.902ZM257.422 177.817V166.708C257.422 165.246 257.174 164.197 256.691 163.56C256.196 162.935 255.453 162.616 254.438 162.616C253.578 162.616 252.858 162.828 252.28 163.265C251.714 163.689 251.254 164.114 250.924 164.515V177.817H248.011V152.415L250.924 152.085V162.321H250.995C251.089 162.18 251.242 161.991 251.443 161.755C251.643 161.507 251.926 161.271 252.28 161.036C252.646 160.788 253.082 160.587 253.601 160.399C254.108 160.222 254.721 160.139 255.405 160.139C256.915 160.139 258.118 160.623 259.002 161.613C259.887 162.592 260.335 164.22 260.335 166.496V177.817L257.422 177.817ZM276.75 177.817H274.097V175.871H274.015C273.956 176.013 273.791 176.225 273.555 176.496C273.319 176.767 273.012 177.039 272.635 177.286C272.269 177.534 271.821 177.758 271.29 177.958C270.76 178.147 270.182 178.241 269.533 178.241C268.767 178.241 268.071 178.123 267.47 177.899C266.856 177.675 266.337 177.31 265.901 176.803C265.465 176.307 265.146 175.647 264.911 174.845C264.686 174.043 264.569 173.053 264.569 171.885V160.564H267.481V171.673C267.481 173.1 267.717 174.126 268.189 174.739C268.649 175.352 269.368 175.659 270.359 175.659C271.196 175.659 271.904 175.446 272.482 175.022C273.048 174.609 273.507 174.196 273.838 173.784V160.564H276.751L276.75 177.817ZM290.619 177.817V166.708C290.619 165.245 290.371 164.196 289.876 163.559C289.393 162.934 288.65 162.616 287.635 162.616C286.775 162.616 286.055 162.828 285.477 163.264C284.911 163.689 284.451 164.113 284.121 164.514V177.816H281.208V160.564H283.862V162.509H283.932C284.015 162.368 284.168 162.156 284.404 161.873C284.64 161.601 284.958 161.342 285.336 161.082C285.725 160.835 286.173 160.611 286.704 160.422C287.234 160.233 287.824 160.139 288.496 160.139C289.263 160.139 289.959 160.245 290.584 160.481C291.209 160.705 291.727 161.071 292.164 161.566C292.6 162.073 292.93 162.733 293.166 163.524C293.402 164.325 293.532 165.316 293.532 166.495V177.817L290.619 177.817ZM310.23 162.828H308.084C308.626 163.736 308.909 164.774 308.909 165.918C308.909 166.826 308.756 167.651 308.461 168.382C308.155 169.113 307.742 169.727 307.2 170.234C306.657 170.729 306.02 171.118 305.301 171.378C304.57 171.649 303.78 171.779 302.942 171.779H302.471C302.329 171.779 302.176 171.755 302.011 171.731C301.716 171.861 301.421 172.05 301.114 172.309C300.796 172.581 300.643 172.923 300.643 173.359C300.643 173.713 300.784 174.007 301.055 174.232C301.327 174.467 301.775 174.574 302.4 174.574H304.593C305.407 174.574 306.162 174.656 306.858 174.833C307.553 174.998 308.155 175.269 308.674 175.635C309.193 176.012 309.594 176.484 309.877 177.062C310.16 177.628 310.301 178.324 310.301 179.137C310.301 180.069 310.113 180.918 309.712 181.685C309.322 182.451 308.756 183.112 308.049 183.666C307.329 184.22 306.445 184.645 305.419 184.963C304.393 185.27 303.237 185.423 301.976 185.423C300.124 185.423 298.733 185.022 297.766 184.22C296.81 183.418 296.327 182.262 296.327 180.753C296.327 180.104 296.445 179.55 296.669 179.09C296.905 178.619 297.164 178.218 297.483 177.864C297.789 177.51 298.108 177.239 298.438 177.038C298.756 176.838 299.016 176.673 299.204 176.555V176.484C298.461 175.93 298.096 175.128 298.096 174.078C298.096 173.618 298.178 173.217 298.367 172.887C298.544 172.557 298.744 172.274 298.968 172.062C299.192 171.849 299.428 171.673 299.652 171.543C299.876 171.413 300.053 171.319 300.171 171.272V171.201C299.287 170.788 298.579 170.151 298.037 169.279C297.494 168.406 297.235 167.286 297.235 165.918C297.235 164.962 297.388 164.113 297.695 163.382C298.013 162.651 298.426 162.05 298.957 161.566C299.487 161.094 300.1 160.729 300.808 160.493C301.516 160.257 302.27 160.139 303.084 160.139C303.898 160.139 304.664 160.281 305.384 160.564H310.632L310.23 162.828ZM302.223 177.274C301.716 177.274 301.28 177.239 300.891 177.156C300.678 177.286 300.466 177.428 300.265 177.593C300.065 177.758 299.876 177.97 299.711 178.206C299.534 178.442 299.405 178.725 299.298 179.043C299.18 179.373 299.133 179.751 299.133 180.175C299.133 182.027 300.147 182.947 302.188 182.947C303.933 182.947 305.23 182.605 306.068 181.921C306.905 181.237 307.329 180.458 307.329 179.574C307.329 178.737 307.058 178.135 306.539 177.793C306.009 177.451 305.301 177.274 304.417 177.274L302.223 177.274ZM306.068 165.918C306.068 164.668 305.773 163.783 305.183 163.264C304.593 162.734 303.91 162.474 303.119 162.474C302.282 162.474 301.563 162.734 300.961 163.264C300.372 163.783 300.065 164.668 300.065 165.918C300.065 167.168 300.372 168.052 300.961 168.571C301.563 169.102 302.259 169.361 303.049 169.361C303.886 169.361 304.593 169.102 305.183 168.571C305.773 168.052 306.068 167.168 306.068 165.918" fill="black"/>
<path d="M95.1786 201.96H99.707V262.339H89.1406V201.96" fill="#F5CF00"/>
<path d="M95.1786 141.284H99.707V201.96H89.1406V141.284" fill="#E6000C"/>
<path d="M61.6384 102.31C64.728 107.204 67.1456 107.121 70.8016 107.121C67.7826 104.798 65.7777 101.838 64.8225 100.317L59.1855 91.2836C58.6313 88.4887 57.1925 85.8941 55.0344 83.9484C55.7538 83.6772 56.3552 83.3823 56.7208 83.1111C53.0413 83.1111 49.3856 81.2361 47.3689 81.2361C46.0835 81.2361 45.2462 82.0026 45.2462 83.0286C45.3288 84.1607 46.5081 85.3282 48.6661 85.3282C49.1614 85.3282 49.7864 85.2574 50.4704 85.1513C51.6497 86.7787 52.5931 88.2527 52.5931 90.3638C52.5931 94.3145 47.8642 97.4041 43.0882 97.4041C42.817 97.4041 42.5576 97.3923 42.2863 97.3687C41.8618 96.3899 40.4231 94.7389 40.4231 92.8756C40.4231 89.7268 42.475 87.1561 42.475 84.0427C42.475 82.1204 41.5198 80.9174 41.166 80.4223C41.7557 79.8798 42.3925 79.2077 42.534 78.7477C42.2038 78.8892 41.791 78.9128 41.2014 78.9128C38.9136 78.9128 37.0503 78.3114 35.2341 78.3114C34.1963 78.3114 33.9133 78.6416 33.9133 78.9482C33.9133 79.0544 33.9368 79.1723 33.9605 79.2312C33.5831 79.0661 33.2175 78.9718 32.7812 78.8893C32.2505 78.7949 31.6727 78.736 31.0595 78.736C28.8424 78.736 28.0523 79.6676 28.0523 80.4577C28.0523 81.1299 28.583 82.3564 29.1844 83.288C30.0453 82.8635 31.0831 82.5686 31.5548 82.5686C32.7223 82.5686 33.7718 83.6889 34.3261 85.0097C33.536 85.1041 33.3827 85.1395 32.5808 85.1395C30.4345 85.1395 28.9722 84.3611 28.6655 84.3611C28.6419 84.3611 28.5829 84.3847 28.5829 84.4319C28.5829 84.7267 29.1961 85.5286 30.399 85.965C31.9793 86.5428 34.3497 86.7905 34.7506 86.8494C34.7506 86.9202 34.3496 87.6749 33.9015 87.8164C33.8071 87.84 33.7246 87.8518 33.6185 87.8282C31.9674 87.498 31.4957 87.3565 29.4085 86.5664C29.3377 86.5428 29.3024 86.5781 29.3024 86.6489C29.3024 87.4744 31.4487 89.3141 33.371 90.0099C31.7672 92.0619 29.7624 94.161 28.8072 97.3687C28.5478 97.3922 28.2884 97.404 28.0171 97.404C23.2411 97.404 18.5122 94.3144 18.5122 90.3638C18.5122 88.2529 19.4556 86.7788 20.6349 85.1513C21.3189 85.2574 21.9439 85.3281 22.4392 85.3281C24.5973 85.3281 25.7767 84.1606 25.8591 83.0285C25.8591 82.0026 25.0218 81.236 23.7246 81.236C21.7198 81.236 18.064 83.1111 14.3728 83.1111C14.7383 83.3823 15.3516 83.6771 16.0709 83.9484C13.9128 85.8942 12.4741 88.4886 11.9198 91.2835L6.27106 100.317C5.32763 101.838 3.32285 104.798 0.291992 107.121C3.94766 107.121 6.37702 107.204 9.46694 102.31L12.3562 97.675C12.5684 98.2764 12.8397 98.8661 13.1463 99.4439L7.39155 108.654C6.42454 110.175 4.44335 113.124 1.41248 115.447C5.06815 115.447 7.48574 115.529 10.5757 110.647L15.5286 102.711C15.9059 103.112 16.2951 103.501 16.7078 103.866L9.7147 115.058C8.74769 116.591 6.77827 119.527 3.73564 121.85C7.39131 121.85 9.80889 121.945 12.8988 117.051L19.715 106.142C20.1632 106.425 20.6231 106.697 21.0948 106.956L12.7809 120.27C11.8138 121.803 9.84442 124.728 6.80179 127.063C10.4575 127.063 12.875 127.146 15.965 122.264L24.5382 108.548C25.0453 108.749 25.5524 108.926 26.0831 109.103L16.4013 124.598C15.4578 126.108 13.4295 129.08 10.4222 131.391C14.0779 131.391 16.4955 131.474 19.5854 126.591L29.9042 110.07C30.0103 110.093 30.1165 110.105 30.2226 110.129C30.5056 111.025 30.6943 111.85 30.6943 112.688C30.6943 117.877 27.2862 122.452 23.2058 125.99C23.4652 126.108 23.9134 126.155 24.3379 126.155C25.187 126.155 25.7294 126.108 26.1068 126.037C25.1634 128.183 23.135 130.966 22.1091 132.405C20.7647 132.169 18.819 131.981 17.5453 131.981C16.2127 131.981 16.0594 132.759 16.0594 133.455C16.0594 134.669 16.6255 135.625 17.2859 136.167C17.5335 135.542 18.0288 134.717 20.4935 134.717C20.5407 134.717 20.6233 134.728 20.7412 134.728C20.0218 135.53 17.7694 137.358 17.7694 138.821C17.7694 139.799 18.8307 141.25 20.2341 141.25C20.1516 140.943 20.1633 140.648 20.1633 140.436C20.1633 139.245 21.2247 137.854 22.1092 136.886C22.0856 137.17 22.0974 137.146 22.0974 137.476C22.0974 140.295 22.3568 141.58 24.1375 141.58C25.0102 141.58 25.6116 141.108 25.8239 140.955C24.6564 139.894 24.6093 139.056 24.6093 137.476V136.108C24.621 135.755 24.6093 135.271 24.5503 134.929C25.1871 134.847 25.4466 134.847 25.9419 134.847C25.9419 134.847 28.4773 134.646 29.0906 135.967C29.7746 135.33 30.777 134.446 30.777 133.455C30.777 132.806 30.4704 132.075 29.1614 132.075C28.6661 132.075 27.1094 132.382 25.8121 132.382C26.1541 131.604 27.7108 129.328 29.0669 127.676C29.2674 128.313 29.5858 129.009 30.2933 129.575C30.3877 128.514 31.0127 125.153 32.6755 123.183C32.8642 124.516 33.1236 125.872 33.1236 128.75C33.1236 135.731 31.449 140.884 27.8875 141.875C28.3474 142.677 29.3262 143.408 30.3522 143.408C31.6495 143.408 32.357 141.934 33.0882 140.543C33.4655 141.569 34.5033 144.081 35.5529 144.081C36.5907 144.081 37.6402 141.569 38.0176 140.543C38.737 141.934 39.4445 143.408 40.7535 143.408C41.7677 143.408 42.7583 142.677 43.2183 141.875C39.6568 140.885 37.9704 135.731 37.9704 128.75C37.9704 125.872 38.2298 124.516 38.4303 123.183C40.0813 125.153 40.7063 128.514 40.8007 129.575C41.5083 129.009 41.8384 128.313 42.0389 127.676C43.3833 129.328 44.94 131.604 45.2937 132.382C43.9847 132.382 42.428 132.075 41.9444 132.075C40.6354 132.075 40.3288 132.806 40.3288 133.455C40.3288 134.446 41.3312 135.33 42.0152 135.967C42.6284 134.646 45.1639 134.847 45.1639 134.847C45.6475 134.847 45.9069 134.847 46.5555 134.929C46.4966 135.271 46.4847 135.755 46.4847 136.108C46.4965 136.663 46.4965 137.064 46.4965 137.476C46.4965 139.057 46.4376 139.894 45.2819 140.955C45.4941 141.108 46.0956 141.58 46.9682 141.58C48.7489 141.58 49.0084 140.295 49.0084 137.476C49.0084 137.146 49.0202 137.17 48.9966 136.886C49.8811 137.853 50.9424 139.245 50.9424 140.436C50.9424 140.648 50.9424 140.943 50.8599 141.25C52.275 141.25 53.3364 139.799 53.3364 138.821C53.3364 137.358 51.084 135.53 50.3528 134.728C50.4707 134.728 50.5651 134.717 50.6004 134.717C53.0769 134.717 53.5722 135.542 53.8199 136.167C54.4803 135.625 55.0463 134.669 55.0463 133.455C55.0463 132.759 54.893 131.981 53.5604 131.981C52.2868 131.981 50.341 132.169 48.9966 132.405C47.9707 130.966 45.9424 128.183 44.9872 126.037C45.3763 126.108 45.9188 126.155 46.7561 126.155C47.1806 126.155 47.6406 126.108 47.9 125.99C43.8078 122.452 40.3997 117.876 40.3997 112.688C40.3997 111.85 40.6002 111.025 40.8832 110.129C40.9894 110.105 41.0955 110.093 41.2016 110.07L51.5204 126.591C54.5983 131.474 57.0276 131.391 60.6715 131.391C57.6761 129.08 55.6477 126.108 54.7042 124.598L45.0224 109.103C45.5413 108.926 46.0602 108.749 46.5673 108.548L55.1288 122.264C58.2302 127.146 60.6477 127.063 64.3037 127.063C61.2612 124.728 59.2799 121.803 58.3246 120.27L50.0107 106.956C50.4706 106.697 50.9423 106.425 51.3905 106.142L58.2067 117.051C61.2963 121.945 63.7139 121.85 67.3699 121.85C64.3273 119.527 62.3578 116.591 61.3908 115.058L54.3977 103.866C54.8104 103.501 55.1996 103.112 55.5652 102.711L60.5299 110.647C63.6195 115.53 66.037 115.447 69.693 115.447C66.6505 113.124 64.6692 110.175 63.714 108.654L57.9592 99.4439C58.2658 98.8661 58.5253 98.2764 58.7493 97.675L61.6384 102.31ZM15.4332 91.7077C15.4332 88.2643 17.9333 85.54 18.8178 84.7734C19.03 84.8206 19.2423 84.8796 19.4428 84.9267C18.5112 86.0589 16.8601 87.981 16.8601 90.5167C16.8601 95.5523 22.2375 99.9274 28.3346 99.9274C28.2874 100.352 28.2757 100.812 28.2757 101.272C28.2757 102.015 28.3111 102.71 28.3818 103.359C21.4946 103.324 15.4332 97.7339 15.4332 91.7077H15.4332ZM24.7612 132.983L24.7258 133.101H24.8437C26.7777 133.101 27.7211 132.959 28.3463 132.877C28.6765 132.83 28.9124 132.794 29.16 132.794C29.6553 132.794 30.0445 132.842 30.0445 133.455C30.0445 133.867 29.561 134.528 29.0892 134.905C28.3817 134.233 27.3911 134.103 25.9405 134.103C25.2683 134.103 24.372 134.221 23.9003 134.292L23.8295 134.304L23.747 134.316L23.7706 134.54C23.8295 134.941 23.8885 135.436 23.8885 136.108V136.721L23.8767 137.476C23.8767 139.115 24.1008 140.059 24.6786 140.766C24.5253 140.825 24.2894 140.872 24.1361 140.872C23.1102 140.872 22.8153 140.424 22.8153 137.476C22.8153 136.886 22.7799 136.344 22.7682 135.966L22.7328 135.424L22.6031 135.518C21.0936 136.674 19.5252 138.738 19.4425 140.283C18.9826 139.988 18.4873 139.327 18.4873 138.82C18.4873 137.983 19.7491 136.721 21.2232 135.247L22.1666 134.304L21.8954 134.233C21.577 134.15 20.9874 133.997 20.4921 133.997C18.8529 133.997 17.8151 134.315 17.1782 134.999C16.9541 134.669 16.7654 133.903 16.7654 133.454C16.7654 133.16 16.8244 132.959 16.9423 132.841C17.0838 132.7 17.3079 132.7 17.4965 132.7H17.5437C19.3598 132.7 21.5179 133.03 22.3671 133.16L22.4143 133.171L22.4497 133.136C22.5912 132.936 26.0465 128.336 26.9428 125.895C27.1551 125.813 27.332 125.754 27.6976 125.754C28.3815 125.754 28.5585 126.214 28.7589 126.921C26.6008 129.539 25.2563 131.58 24.7612 132.983L24.7612 132.983ZM43.4057 125.754C43.7713 125.754 43.9364 125.813 44.1487 125.895C45.0449 128.337 48.5002 132.936 48.6536 133.136L48.6771 133.171L48.7361 133.16C49.5734 133.03 51.7433 132.7 53.5595 132.7H53.5949C53.7954 132.7 54.0194 132.7 54.1609 132.841C54.2789 132.959 54.3378 133.16 54.3378 133.455C54.3378 133.903 54.1492 134.669 53.9133 134.999C53.2765 134.315 52.2505 133.997 50.5994 133.997C50.1041 133.997 49.5262 134.15 49.2078 134.233L49.0781 134.256L48.9248 134.304L49.88 135.247C51.3423 136.721 52.616 137.983 52.616 138.82C52.616 139.327 52.1207 139.988 51.6607 140.283C51.5664 138.738 50.0097 136.674 48.4884 135.518L48.3587 135.424L48.3351 135.967C48.3116 136.344 48.2879 136.886 48.2879 137.476C48.2879 140.424 47.9813 140.872 46.9671 140.872C46.8138 140.872 46.5662 140.825 46.4247 140.766C46.9907 140.059 47.2266 139.115 47.2266 137.476L47.2148 136.721L47.203 136.108C47.203 135.436 47.2738 134.941 47.3327 134.54L47.3563 134.316L47.203 134.292C46.7195 134.221 45.835 134.103 45.1628 134.103C43.7123 134.103 42.7217 134.233 42.014 134.905C41.5423 134.528 41.0588 133.868 41.0588 133.455C41.0588 132.842 41.4362 132.794 41.9433 132.794C42.1909 132.794 42.4268 132.83 42.757 132.877C43.382 132.959 44.3136 133.101 46.2596 133.101H46.3775L46.3303 132.983C45.8468 131.58 44.5024 129.54 42.3444 126.922C42.5331 126.214 42.7218 125.754 43.4057 125.754V125.754ZM35.4103 85.5989C35.1862 84.7026 34.7263 83.7945 34.1485 83.0988C33.6178 82.4738 32.7333 81.7308 31.554 81.7308C31.0115 81.7308 30.1035 81.9785 29.5374 82.2261C29.3134 81.8369 28.9006 80.8817 28.9006 80.4572C28.9006 80.0209 29.6436 79.5727 31.0587 79.5727C34.1719 79.5727 36.0234 80.9879 36.0234 83.3464C36.0234 84.1719 35.705 84.9385 35.4102 85.5989H35.4103ZM36.8017 82.5328C36.6956 81.8606 36.4362 81.2591 36.047 80.7403C36.0705 80.1388 36.3182 79.5492 37.3088 80.0327C36.7664 80.5752 37.1791 81.5304 37.1791 81.5304C37.1791 81.5304 38.2641 81.0351 38.04 80.3157C39.6556 80.7049 38.4999 82.863 36.8017 82.5328ZM42.8632 103.359C42.9458 102.687 42.9929 101.991 42.9929 101.271C42.9929 100.882 42.993 100.434 42.9458 99.9153C48.9601 99.8328 54.2433 95.5049 54.2433 90.5164C54.2433 87.9809 52.5923 86.0586 51.6489 84.9264C51.8612 84.8793 52.0734 84.8203 52.2857 84.7731C53.1702 85.5397 55.6703 88.2637 55.6703 91.7074C55.6703 97.6865 49.6912 103.241 42.8632 103.359" fill="black"/>
<path d="M99.707 81.2132V141.593H89.1406V81.2132" fill="black"/>
<path d="M131.225 9.13937C131.354 5.89741 129.765 4.67363 126.416 4.67363C123.131 4.67363 121.542 6.64886 121.542 9.74053V14.8289C121.542 19.1229 123.131 20.819 126.416 20.819C128.412 20.819 129.894 20.3467 131.16 19.6596V12.1237H126.33V13.8413H129.185V18.4788C128.777 18.7794 127.833 19.1658 126.416 19.1658C124.548 19.1658 123.56 18.307 123.56 14.9148V9.67612C123.56 6.43416 125.793 6.32681 126.416 6.32681C128.412 6.32681 129.164 7.31443 129.164 9.13937H131.225ZM142.976 20.4969V18.7794H136.836V13.4119H142.418V11.6943H136.836V6.71327H142.847V4.99568H134.86V20.4969H142.976ZM147.42 20.4969V13.4119H152.831V11.6943H147.42V6.71327H153.131V4.99568H145.445V20.4969H147.42ZM159.944 20.819C163.229 20.819 164.818 19.1229 164.818 14.8289V9.74053C164.818 6.64886 163.229 4.67363 159.944 4.67363C156.659 4.67363 155.071 6.64886 155.071 9.74053V14.8289C155.071 19.1229 156.659 20.819 159.944 20.819ZM159.944 19.1658C158.076 19.1658 157.089 18.307 157.089 14.9148V9.67612C157.089 6.43416 159.322 6.32681 159.944 6.32681C160.567 6.32681 162.8 6.43416 162.8 9.67612V14.9148C162.8 18.307 161.812 19.1658 159.944 19.1658ZM159.086 0.937866H157.067V3.17074H159.086V0.937866ZM162.864 0.937866H160.846V3.17074H162.864V0.937866ZM170.193 6.71327H173.177C174.701 6.71327 175.259 7.95852 175.259 9.07496C175.259 10.4276 174.572 11.6513 173.155 11.6513H170.193V6.71327ZM172.511 13.3689C173.177 13.3689 174.701 13.4548 174.852 15.3442C175.023 17.4053 174.894 19.4235 175.453 20.4969H177.514C177.213 19.5308 176.999 17.1047 176.977 16.4391C176.87 13.326 176.226 12.7248 174.444 12.4457V12.4028C176.269 12.0807 177.278 10.6852 177.278 8.86026C177.278 6.92797 176.311 4.99568 173.563 4.99568H168.217V20.4969H170.193V13.3689H172.511ZM182.208 6.71327H184.806C186.867 6.71327 187.834 7.87265 187.834 11.0073V14.1419C187.834 17.7488 186.825 18.7794 184.076 18.7794H182.208V6.71327ZM180.233 20.4969H183.797C186.502 20.4969 188.07 19.8314 188.907 18.5002C189.551 17.4697 189.852 15.5589 189.852 12.2525C189.852 11.7587 189.787 8.66703 189.165 7.35737C188.392 5.70419 186.975 4.99568 185 4.99568H180.233V20.4969ZM201.431 20.4969V18.7794H195.291V13.4119H200.873V11.6943H195.291V6.71327H201.302V4.99568H193.315V20.4969H201.431ZM205.983 6.71327H208.967C210.491 6.71327 211.05 7.95852 211.05 9.07496C211.05 10.4276 210.363 11.6513 208.946 11.6513H205.983V6.71327ZM208.301 13.3689C208.967 13.3689 210.491 13.4548 210.642 15.3442C210.813 17.4053 210.685 19.4235 211.243 20.4969H213.304C213.003 19.5308 212.789 17.1047 212.767 16.4391C212.66 13.326 212.016 12.7248 210.234 12.4457V12.4028C212.059 12.0807 213.068 10.6852 213.068 8.86026C213.068 6.92797 212.102 4.99568 209.353 4.99568H204.007V20.4969H205.983V13.3689H208.301ZM214.542 4.99568V6.71327H218.621V20.4969H220.597V6.71327H224.676V4.99568H214.542ZM241.394 4.99568H239.376L235.747 18.6291H235.704L232.162 4.99568H230.015L234.502 20.4969H236.864L241.394 4.99568ZM248.214 20.819C251.499 20.819 253.088 19.1229 253.088 14.8289V9.74053C253.088 6.64886 251.499 4.67363 248.214 4.67363C244.929 4.67363 243.341 6.64886 243.341 9.74053V14.8289C243.341 19.1229 244.929 20.819 248.214 20.819ZM248.214 19.1658C246.346 19.1658 245.359 18.307 245.359 14.9148V9.67612C245.359 6.43416 247.592 6.32681 248.214 6.32681C248.837 6.32681 251.07 6.43416 251.07 9.67612V14.9148C251.07 18.307 250.082 19.1658 248.214 19.1658ZM258.398 6.71327H258.441L262.692 20.4969H264.56L268.897 6.71327H268.94V20.4969H270.915V4.99568H267.651L263.701 18.0064H263.658L259.751 4.99568H256.552V20.4969H258.398V6.71327Z" fill="black"/>
</svg>
